<svg width="25" height="16" viewBox="0 0 25 16" fill="current" stroke="current" xmlns="http://www.w3.org/2000/svg">
<path d="M1.05578 15.2717C0.87571 15.2717 0.711913 15.1979 0.564388 15.0504C0.417947 14.904 0.344727 14.7402 0.344727 14.559V8.69489C0.344727 8.35536 0.45754 7.95401 0.683167 7.49082C0.909879 7.02763 1.24886 6.68323 1.70012 6.4576V3.40675C1.70012 2.66153 1.95991 2.02858 2.47951 1.50791C3.00018 0.988312 3.63313 0.728516 4.37835 0.728516H10.345C10.7973 0.728516 11.1927 0.824516 11.5312 1.01652C11.8696 1.20852 12.1408 1.46289 12.3447 1.77963C12.5487 1.46289 12.8253 1.20852 13.1746 1.01652C13.5249 0.824516 13.9263 0.728516 14.3786 0.728516H20.2769C21.0222 0.728516 21.6605 0.988312 22.192 1.50791C22.7236 2.02858 22.9893 2.66153 22.9893 3.40675V6.4576C23.4406 6.68323 23.7796 7.02763 24.0063 7.49082C24.2319 7.95401 24.3447 8.35536 24.3447 8.69489V14.559C24.3447 14.7402 24.2715 14.904 24.1251 15.0504C23.9775 15.1979 23.8246 15.2717 23.6662 15.2717C23.4861 15.2717 23.3224 15.1979 23.1748 15.0504C23.0284 14.904 22.9552 14.7402 22.9552 14.559V12.6602H1.73429V14.559C1.73429 14.7402 1.66107 14.904 1.51462 15.0504C1.3671 15.1979 1.21415 15.2717 1.05578 15.2717ZM13.0574 6.01665H21.6323V3.44092C21.6323 3.05692 21.5027 2.74072 21.2434 2.49231C20.9831 2.24282 20.6609 2.11808 20.2769 2.11808H14.3786C13.9946 2.11808 13.6784 2.24282 13.43 2.49231C13.1816 2.74072 13.0574 3.05692 13.0574 3.44092V6.01665ZM3.05713 6.01665H11.632V3.40675C11.632 3.04553 11.5138 2.74072 11.2773 2.49231C11.0398 2.24282 10.729 2.11808 10.345 2.11808H4.37835C3.99435 2.11808 3.67815 2.24282 3.42974 2.49231C3.18134 2.74072 3.05713 3.05692 3.05713 3.44092V6.01665ZM1.73429 11.2706H22.9552V8.69489C22.9552 8.31089 22.831 8.00011 22.5826 7.76255C22.3331 7.52499 22.0277 7.40621 21.6665 7.40621H3.05713C2.67313 7.40621 2.35639 7.52499 2.1069 7.76255C1.85849 8.00011 1.73429 8.2995 1.73429 8.66072V11.2706ZM22.9552 11.2706H1.73429C1.73429 11.2706 1.85849 11.2706 2.1069 11.2706C2.35639 11.2706 2.67313 11.2706 3.05713 11.2706H21.6665C22.0505 11.2706 22.3613 11.2706 22.5988 11.2706C22.8364 11.2706 22.9552 11.2706 22.9552 11.2706Z"/>
</svg>
