<svg width="24" height="25" viewBox="0 0 24 25" fill="none" xmlns="http://www.w3.org/2000/svg">
<path d="M8.84995 17.8319C8.71662 17.6652 8.64579 17.4819 8.63745 17.2819C8.62912 17.0819 8.69995 16.9069 8.84995 16.7569L13.25 12.3569L8.82495 7.93187C8.69162 7.79854 8.62912 7.61937 8.63745 7.39437C8.64579 7.16937 8.71662 6.9902 8.84995 6.85687C9.01662 6.6902 9.19579 6.61104 9.38745 6.61937C9.57912 6.6277 9.74995 6.70687 9.89995 6.85687L14.875 11.8319C14.9583 11.9152 15.0166 11.9985 15.05 12.0819C15.0833 12.1652 15.1 12.2569 15.1 12.3569C15.1 12.4569 15.0833 12.5485 15.05 12.6319C15.0166 12.7152 14.9583 12.7985 14.875 12.8819L9.92495 17.8319C9.77495 17.9819 9.59995 18.0527 9.39995 18.0444C9.19995 18.036 9.01662 17.9652 8.84995 17.8319Z" fill="black"/>
</svg>
