<svg width="12" height="14" viewBox="0 0 12 14" fill="none" xmlns="http://www.w3.org/2000/svg">
<path d="M2.29666 13.4077C1.90643 13.4077 1.57408 13.2705 1.2996 12.996C1.02513 12.7215 0.887888 12.3823 0.887888 11.9782V1.58135H0.433547C0.317796 1.58135 0.2166 1.53422 0.12996 1.43996C0.04332 1.34639 0 1.24173 0 1.12597C0 1.02478 0.04332 0.927396 0.12996 0.833824C0.2166 0.73956 0.317796 0.692428 0.433547 0.692428H3.44446C3.44446 0.505285 3.51655 0.343095 3.66072 0.205857C3.80489 0.0686192 3.97089 0 4.15872 0H7.84128C8.02911 0 8.19165 0.0686192 8.32889 0.205857C8.46612 0.343095 8.53474 0.505285 8.53474 0.692428H11.5665C11.6676 0.692428 11.765 0.73956 11.8586 0.833824C11.9529 0.927396 12 1.02478 12 1.12597C12 1.24173 11.9529 1.34639 11.8586 1.43996C11.765 1.53422 11.6676 1.58135 11.5665 1.58135H11.1121V11.9782C11.1121 12.3823 10.9749 12.7215 10.7004 12.996C10.4259 13.2705 10.0866 13.4077 9.68255 13.4077H2.29666ZM1.77682 1.58135V11.9782C1.77682 12.1369 1.82707 12.2669 1.92757 12.368C2.02876 12.4692 2.15179 12.5198 2.29666 12.5198H9.68255C9.84128 12.5198 9.97124 12.4692 10.0724 12.368C10.1729 12.2669 10.2232 12.1369 10.2232 11.9782V1.58135H1.77682ZM4.1161 10.2669C4.1161 10.3826 4.16288 10.4873 4.25645 10.5808C4.35003 10.6744 4.45469 10.7212 4.57044 10.7212C4.67163 10.7212 4.76902 10.6744 4.86259 10.5808C4.95685 10.4873 5.00399 10.3826 5.00399 10.2669V3.81147C5.00399 3.71097 4.95685 3.61359 4.86259 3.51932C4.76902 3.42575 4.67163 3.37896 4.57044 3.37896C4.45469 3.37896 4.35003 3.42575 4.25645 3.51932C4.16288 3.61359 4.1161 3.71097 4.1161 3.81147V10.2669ZM6.97522 10.2669C6.97522 10.3826 7.02201 10.4873 7.11558 10.5808C7.20915 10.6744 7.31381 10.7212 7.42956 10.7212C7.53076 10.7212 7.62814 10.6744 7.72171 10.5808C7.81598 10.4873 7.86311 10.3826 7.86311 10.2669V3.81147C7.86311 3.71097 7.81598 3.61359 7.72171 3.51932C7.62814 3.42575 7.53076 3.37896 7.42956 3.37896C7.31381 3.37896 7.20915 3.42575 7.11558 3.51932C7.02201 3.61359 6.97522 3.71097 6.97522 3.81147V10.2669ZM1.77682 1.58135V11.9782C1.77682 12.1369 1.82707 12.2669 1.92757 12.368C2.02876 12.4692 2.15179 12.5198 2.29666 12.5198H1.77682C1.77682 12.5198 1.77682 12.4692 1.77682 12.368C1.77682 12.2669 1.77682 12.1369 1.77682 11.9782V1.58135Z" fill="#CE1313"/>
</svg>
