<svg width="32" height="32" viewBox="0 0 32 32" fill="none" xmlns="http://www.w3.org/2000/svg">
<rect width="32" height="32" rx="16" fill="#00509D"/>
<path d="M9.09512 22.9283H10.2195L20.3629 12.7837L19.2398 11.6342L9.09512 21.7776V22.9283ZM22.6117 12.1048L19.945 9.38541L20.9903 8.31373C21.2171 8.10458 21.4743 8 21.7621 8C22.0499 8 22.3071 8.11336 22.5339 8.34008L23.7097 9.48957C23.9013 9.69872 23.9887 9.96476 23.972 10.2877C23.9544 10.6098 23.8498 10.8754 23.6583 11.0845L22.6117 12.1048ZM8.88681 24C8.64252 24 8.43756 23.9172 8.27191 23.7515C8.10626 23.5859 8.02344 23.3809 8.02344 23.1366V21.6471C8.02344 21.5425 8.04101 21.4421 8.07614 21.3459C8.11044 21.2505 8.17152 21.1593 8.25936 21.0723L19.2398 10.117L21.9315 12.7837L10.926 23.7641C10.8558 23.8344 10.7729 23.8912 10.6776 23.9347C10.5813 23.9782 10.481 24 10.3764 24H8.88681ZM19.8145 12.2089L19.2398 11.6342L20.3629 12.7837L19.8145 12.2089Z" fill="white"/>
</svg>
