<svg width="24" height="12" viewBox="0 0 24 12" fill="none" xmlns="http://www.w3.org/2000/svg">
<path d="M5.95453 12C4.29063 12 2.88223 11.4187 1.72934 10.2562C0.576447 9.09275 0 7.67906 0 6.01516C0 4.35126 0.586551 2.93276 1.75965 1.75965C2.93179 0.586552 4.3503 0 6.01516 0H19.3677C20.5899 0 21.6374 0.42632 22.5103 1.27896C23.3822 2.13064 23.8181 3.16805 23.8181 4.39119C23.8181 5.61434 23.387 6.64694 22.5247 7.48899C21.6625 8.33105 20.6198 8.75208 19.3966 8.75208H7.42837C6.66619 8.75208 6.01419 8.49128 5.47239 7.96969C4.93155 7.44906 4.66113 6.80765 4.66113 6.04547C4.66113 5.28329 4.93155 4.64189 5.47239 4.12126C6.01419 3.59966 6.66619 3.33887 7.42837 3.33887H18.8856C19.0463 3.33887 19.1767 3.3942 19.2768 3.50487C19.3769 3.61458 19.4269 3.73969 19.4269 3.88019C19.4269 4.06111 19.3769 4.20161 19.2768 4.3017C19.1767 4.40178 19.0463 4.45182 18.8856 4.45182H7.42837C6.9674 4.45182 6.5815 4.60724 6.27066 4.91808C5.95982 5.22892 5.8044 5.60472 5.8044 6.04547C5.8044 6.48623 5.95982 6.86202 6.27066 7.17286C6.5815 7.4837 6.9674 7.63912 7.42837 7.63912H19.3677C20.2897 7.63912 21.0711 7.32347 21.712 6.69217C22.3539 6.06087 22.6748 5.29388 22.6748 4.39119C22.6748 3.48947 22.3539 2.72248 21.712 2.09022C21.0711 1.45892 20.2993 1.14327 19.3966 1.14327H6.04403C4.66113 1.14327 3.49862 1.61434 2.55648 2.55648C1.61338 3.49862 1.14183 4.64141 1.14183 5.98484C1.14183 7.34849 1.60808 8.50668 2.5406 9.4594C3.47311 10.4112 4.61109 10.887 5.95453 10.887H18.8856C19.0463 10.887 19.1767 10.9424 19.2768 11.0531C19.3769 11.1628 19.4269 11.298 19.4269 11.4587C19.4269 11.6194 19.3769 11.7498 19.2768 11.8499C19.1767 11.95 19.0463 12 18.8856 12H5.95453Z" fill="black"/>
</svg>
