<svg width="11" height="17" viewBox="0 0 11 17" fill="none" xmlns="http://www.w3.org/2000/svg">
<path d="M5.45305 12.8437C6.96062 11.6601 8.10534 10.5082 8.8872 9.38821C9.66973 8.26751 10.061 7.18603 10.061 6.14378C10.061 5.26994 9.9024 4.53001 9.58519 3.92401C9.26798 3.318 8.87705 2.82832 8.4124 2.45498C7.94708 2.08164 7.44692 1.80704 6.91193 1.63119C6.37626 1.45466 5.88997 1.3664 5.45305 1.3664C5.01613 1.3664 4.52983 1.45466 3.99417 1.63119C3.45918 1.80704 2.95902 2.08164 2.49369 2.45498C2.02904 2.82832 1.64183 3.318 1.33207 3.92401C1.02162 4.53001 0.866401 5.26994 0.866401 6.14378C0.866401 7.18603 1.25733 8.26751 2.03919 9.38821C2.82172 10.5082 3.95967 11.6601 5.45305 12.8437ZM5.45305 13.7101C5.3685 13.7101 5.28058 13.6996 5.18927 13.6786C5.09729 13.657 5.01613 13.6181 4.94579 13.5619C3.26912 12.2235 2.02566 10.9448 1.2154 9.72605C0.405132 8.50727 0 7.31318 0 6.14378C0 5.22733 0.158603 4.41706 0.47581 3.71299C0.79234 3.00823 1.21506 2.41981 1.74396 1.94772C2.27219 1.47563 2.86399 1.11649 3.51937 0.8703C4.17408 0.623433 4.81863 0.5 5.45305 0.5C6.10099 0.5 6.74927 0.623433 7.39788 0.8703C8.04582 1.11649 8.63391 1.47563 9.16213 1.94772C9.69104 2.41981 10.1175 3.00451 10.4414 3.70183C10.7654 4.39982 10.9274 5.2138 10.9274 6.14378C10.9274 7.31318 10.5189 8.50727 9.70186 9.72605C8.88416 10.9448 7.63697 12.2235 5.96031 13.5619C5.87576 13.6181 5.79122 13.657 5.70668 13.6786C5.62213 13.6996 5.53759 13.7101 5.45305 13.7101ZM5.45305 7.28511C5.81963 7.28511 6.12601 7.16168 6.3722 6.91481C6.61907 6.66794 6.7425 6.36866 6.7425 6.01696C6.7425 5.65038 6.61907 5.34366 6.3722 5.09679C6.12601 4.8506 5.81963 4.72751 5.45305 4.72751C5.08647 4.72751 4.78346 4.8506 4.54404 5.09679C4.30461 5.34366 4.1849 5.65038 4.1849 6.01696C4.1849 6.38286 4.30833 6.68587 4.5552 6.92597C4.80139 7.1654 5.10067 7.28511 5.45305 7.28511ZM0.423055 16.5C0.310105 16.5 0.211358 16.4577 0.126815 16.3732C0.0422717 16.2886 0 16.1899 0 16.0769C0 15.9647 0.0422717 15.8625 0.126815 15.7706C0.211358 15.6793 0.310105 15.6336 0.423055 15.6336H10.483C10.596 15.6336 10.6981 15.6793 10.7894 15.7706C10.8814 15.8625 10.9274 15.9647 10.9274 16.0769C10.9274 16.1899 10.8814 16.2886 10.7894 16.3732C10.6981 16.4577 10.596 16.5 10.483 16.5H0.423055Z" fill="black"/>
</svg>
