<svg width="44" height="46" viewBox="0 0 44 46" fill="none" xmlns="http://www.w3.org/2000/svg">
<path d="M42.1139 22.9998C42.1139 34.7601 32.9665 44.191 21.807 44.191C10.6474 44.191 1.5 34.7601 1.5 22.9998C1.5 11.2395 10.6474 1.80859 21.807 1.80859C32.9665 1.80859 42.1139 11.2395 42.1139 22.9998Z" stroke="white" stroke-width="3"/>
<path d="M43.3639 22.9998C43.3639 35.4032 33.7033 45.441 21.807 45.441C9.91065 45.441 0.25 35.4032 0.25 22.9998C0.25 10.5964 9.91065 0.558594 21.807 0.558594C33.7033 0.558594 43.3639 10.5964 43.3639 22.9998Z" stroke="#8B8E93" stroke-width="0.5"/>
<mask id="path-3-inside-1_3972_19003" fill="white">
<path d="M25.5 21.0586C25.5 24.7865 22.4779 27.8086 18.75 27.8086C17.4727 27.8086 16.2783 27.4538 15.2599 26.8374C15.1827 26.7907 15.0891 26.7789 15.0035 26.8074L12.5692 27.6189C12.3347 27.697 12.1116 27.4739 12.1897 27.2394L13.0012 24.8051C13.0297 24.7195 13.0179 24.6259 12.9712 24.5487C12.3548 23.5303 12 22.3359 12 21.0586C12 17.3307 15.0221 14.3086 18.75 14.3086C22.4779 14.3086 25.5 17.3307 25.5 21.0586Z"/>
</mask>
<path d="M13.0012 24.8051L13.7601 25.0581L13.0012 24.8051ZM12.9712 24.5487L12.2868 24.9629L12.9712 24.5487ZM12.5692 27.6189L12.8222 28.3778L12.5692 27.6189ZM12.1897 27.2394L12.9487 27.4924L12.1897 27.2394ZM15.2599 26.8374L14.8456 27.5218L15.2599 26.8374ZM15.0035 26.8074L15.2565 27.5664L15.0035 26.8074ZM18.75 28.6086C22.9198 28.6086 26.3 25.2283 26.3 21.0586H24.7C24.7 24.3447 22.0361 27.0086 18.75 27.0086V28.6086ZM14.8456 27.5218C15.9855 28.2117 17.3226 28.6086 18.75 28.6086V27.0086C17.6228 27.0086 16.5711 26.6959 15.6741 26.153L14.8456 27.5218ZM14.7505 26.0485L12.3162 26.8599L12.8222 28.3778L15.2565 27.5664L14.7505 26.0485ZM12.9487 27.4924L13.7601 25.0581L12.2422 24.5521L11.4308 26.9864L12.9487 27.4924ZM11.2 21.0586C11.2 22.486 11.5969 23.8231 12.2868 24.9629L13.6556 24.1345C13.1127 23.2375 12.8 22.1858 12.8 21.0586H11.2ZM18.75 13.5086C14.5802 13.5086 11.2 16.8888 11.2 21.0586H12.8C12.8 17.7725 15.4639 15.1086 18.75 15.1086V13.5086ZM26.3 21.0586C26.3 16.8888 22.9198 13.5086 18.75 13.5086V15.1086C22.0361 15.1086 24.7 17.7725 24.7 21.0586H26.3ZM13.7601 25.0581C13.8657 24.7414 13.819 24.4045 13.6556 24.1345L12.2868 24.9629C12.2167 24.8472 12.1937 24.6976 12.2422 24.5521L13.7601 25.0581ZM12.3162 26.8599C12.7071 26.7296 13.079 27.1015 12.9487 27.4924L11.4308 26.9864C11.1441 27.8463 11.9623 28.6644 12.8222 28.3778L12.3162 26.8599ZM15.6741 26.153C15.404 25.9896 15.0672 25.9429 14.7505 26.0485L15.2565 27.5664C15.111 27.6149 14.9614 27.5919 14.8456 27.5218L15.6741 26.153Z" fill="#686B6F" mask="url(#path-3-inside-1_3972_19003)"/>
<path d="M19.1309 27.7969C20.0542 30.4247 22.5575 32.3086 25.5009 32.3086C26.7952 32.3086 28.0044 31.9444 29.0315 31.3127C29.0828 31.2812 29.1453 31.2734 29.2023 31.2924L31.8714 32.1821C32.0278 32.2342 32.1765 32.0855 32.1244 31.9291L31.2338 29.2574C31.2153 29.2018 31.222 29.141 31.2523 29.0908L31.3644 28.9048C31.9285 27.9185 32.2509 26.7762 32.2509 25.5586C32.2509 21.8307 29.2288 18.8086 25.5009 18.8086L25.2478 18.8132L25.1208 18.82" stroke="#686B6F" stroke-width="0.8" stroke-linecap="round" stroke-linejoin="round"/>
</svg>
