<svg width="44" height="46" viewBox="0 0 44 46" fill="none" xmlns="http://www.w3.org/2000/svg">
<path d="M42.1139 22.9998C42.1139 34.7601 32.9665 44.191 21.807 44.191C10.6474 44.191 1.5 34.7601 1.5 22.9998C1.5 11.2395 10.6474 1.80859 21.807 1.80859C32.9665 1.80859 42.1139 11.2395 42.1139 22.9998Z" stroke="white" stroke-width="3"/>
<path d="M43.3639 22.9998C43.3639 35.4032 33.7033 45.441 21.807 45.441C9.91065 45.441 0.25 35.4032 0.25 22.9998C0.25 10.5964 9.91065 0.558594 21.807 0.558594C33.7033 0.558594 43.3639 10.5964 43.3639 22.9998Z" stroke="#8B8E93" stroke-width="0.5"/>
<path d="M22 28.0007C22.151 28.0007 22.2875 27.9392 22.4095 27.8163C22.5324 27.6942 22.5939 27.5672 22.5939 27.4353V22.4346C22.5939 22.3035 22.5324 22.181 22.4095 22.0671C22.2875 21.955 22.151 21.899 22 21.899C21.868 21.899 21.741 21.96 21.619 22.082C21.496 22.2041 21.4346 22.3311 21.4346 22.4631V27.4637C21.4346 27.5957 21.496 27.7177 21.619 27.8298C21.741 27.9437 21.868 28.0007 22 28.0007ZM22 20.3166C22.188 20.3166 22.353 20.2411 22.4949 20.0902C22.6359 19.9401 22.7064 19.7706 22.7064 19.5817C22.7064 19.3937 22.6359 19.2292 22.4949 19.0881C22.353 18.9462 22.188 18.8753 22 18.8753C21.812 18.8753 21.647 18.9462 21.5051 19.0881C21.3641 19.2292 21.2936 19.3937 21.2936 19.5817C21.2936 19.7706 21.3641 19.9401 21.5051 20.0902C21.647 20.2411 21.812 20.3166 22 20.3166ZM22 33C20.6061 33 19.3021 32.741 18.0881 32.2231C16.8732 31.7051 15.8138 30.9941 14.9098 30.0902C14.0059 29.1862 13.2949 28.1268 12.7769 26.9119C12.259 25.6979 12 24.3939 12 23C12 21.6061 12.259 20.3021 12.7769 19.0881C13.2949 17.8732 14.0059 16.8138 14.9098 15.9098C15.8138 15.0059 16.8732 14.2949 18.0881 13.7769C19.3021 13.259 20.6061 13 22 13C23.3939 13 24.6979 13.259 25.9119 13.7769C27.1268 14.2949 28.1862 15.0059 29.0902 15.9098C29.9941 16.8138 30.7051 17.8732 31.2231 19.0881C31.741 20.3021 32 21.6061 32 23C32 24.3939 31.741 25.6979 31.2231 26.9119C30.7051 28.1268 29.9941 29.1862 29.0902 30.0902C28.1862 30.9941 27.1268 31.7051 25.9119 32.2231C24.6979 32.741 23.3939 33 22 33ZM22 31.842C24.4479 31.842 26.5338 30.9806 28.2576 29.2576C29.9806 27.5338 30.842 25.4479 30.842 23C30.842 20.5521 29.9806 18.4662 28.2576 16.7424C26.5338 15.0194 24.4479 14.158 22 14.158C19.5521 14.158 17.4662 15.0194 15.7424 16.7424C14.0194 18.4662 13.158 20.5521 13.158 23C13.158 25.4479 14.0194 27.5338 15.7424 29.2576C17.4662 30.9806 19.5521 31.842 22 31.842Z" fill="#686B6F"/>
</svg>
