<svg width="16" height="17" viewBox="0 0 16 17" fill="none" xmlns="http://www.w3.org/2000/svg">
<path d="M15.1176 16.7385L9.36637 10.962C8.81427 11.3975 8.21596 11.7198 7.57145 11.9287C6.92693 12.1385 6.30331 12.2433 5.70059 12.2433C4.11019 12.2433 2.7625 11.6949 1.6575 10.5979C0.552499 9.50175 0 8.16651 0 6.59219C0 5.01867 0.552499 3.67499 1.6575 2.56115C2.7625 1.44812 4.10175 0.891602 5.67527 0.891602C7.26567 0.891602 8.60934 1.4441 9.70631 2.5491C10.8025 3.6541 11.3505 5.00179 11.3505 6.59219C11.3505 7.24554 11.2421 7.89448 11.0251 8.53899C10.8073 9.18351 10.489 9.74846 10.0704 10.2339L15.871 16.0345C15.9714 16.1358 16.0132 16.2531 15.9964 16.3865C15.9803 16.5207 15.9305 16.638 15.8469 16.7385C15.7127 16.8558 15.5869 16.9145 15.4696 16.9145C15.3522 16.9145 15.2349 16.8558 15.1176 16.7385ZM5.70059 11.2127C6.98962 11.2127 8.08216 10.7651 8.97821 9.86981C9.87346 8.97376 10.3211 7.88122 10.3211 6.59219C10.3211 5.2694 9.87748 4.16039 8.99027 3.26514C8.10305 2.36908 6.99806 1.92106 5.67527 1.92106C4.36936 1.92106 3.26838 2.36908 2.37233 3.26514C1.47708 4.16039 1.02946 5.2694 1.02946 6.59219C1.02946 7.89809 1.47708 8.99465 2.37233 9.88187C3.26838 10.7691 4.3778 11.2127 5.70059 11.2127Z" fill="#686B6F"/>
</svg>
