<svg width="16" height="16" viewBox="0 0 16 16" fill="none" xmlns="http://www.w3.org/2000/svg">
<path d="M10.8702 11.5482C10.9606 11.6538 11.0698 11.7026 11.1978 11.6946C11.3258 11.6874 11.4426 11.631 11.5482 11.5254C11.669 11.4047 11.7294 11.2879 11.7294 11.1751C11.7294 11.0622 11.669 10.953 11.5482 10.8475L8.47512 7.79607V3.99946C8.47512 3.8946 8.42956 3.79697 8.33844 3.70658C8.24877 3.61618 8.13595 3.57098 8 3.57098C7.89442 3.57098 7.79281 3.6198 7.69519 3.71742C7.59684 3.81577 7.54766 3.91738 7.54766 4.02224V7.90997C7.54766 7.98518 7.56285 8.064 7.59322 8.14644C7.62359 8.2296 7.67638 8.30879 7.75159 8.384L10.8702 11.5482ZM8 16C6.90007 16 5.86052 15.7892 4.88136 15.3676C3.90219 14.9453 3.05464 14.3725 2.33871 13.6494C1.6235 12.9262 1.05473 12.079 0.632407 11.1078C0.210802 10.1359 0 9.09993 0 8C0 6.90007 0.210802 5.86052 0.632407 4.88136C1.05473 3.90219 1.62748 3.05464 2.35064 2.33871C3.07381 1.6235 3.92099 1.05473 4.8922 0.632407C5.86414 0.210802 6.90007 0 8 0C9.09993 0 10.1395 0.210802 11.1186 0.632407C12.0978 1.05473 12.9454 1.62748 13.6613 2.35064C14.3765 3.07381 14.9453 3.92099 15.3676 4.8922C15.7892 5.86414 16 6.90007 16 8C16 9.09993 15.7892 10.1395 15.3676 11.1186C14.9453 12.0978 14.3725 12.9454 13.6494 13.6613C12.9262 14.3765 12.079 14.9453 11.1078 15.3676C10.1359 15.7892 9.09993 16 8 16ZM8 15.0736C9.95833 15.0736 11.627 14.3845 13.0061 13.0061C14.3845 11.627 15.0736 9.95833 15.0736 8C15.0736 6.04167 14.3845 4.37297 13.0061 2.9939C11.627 1.61555 9.95833 0.926373 8 0.926373C6.04167 0.926373 4.37297 1.61555 2.9939 2.9939C1.61555 4.37297 0.926373 6.04167 0.926373 8C0.926373 9.95833 1.61555 11.627 2.9939 13.0061C4.37297 14.3845 6.04167 15.0736 8 15.0736Z" fill="#8B8E93"/>
</svg>
