<svg width="16" height="17" viewBox="0 0 16 17" fill="none" xmlns="http://www.w3.org/2000/svg">
<path d="M8 12.5005C8.12077 12.5005 8.22997 12.4514 8.32759 12.353C8.42594 12.2554 8.47512 12.1538 8.47512 12.0482V8.04766C8.47512 7.9428 8.42594 7.84481 8.32759 7.7537C8.22997 7.66402 8.12077 7.61919 8 7.61919C7.89442 7.61919 7.79281 7.668 7.69519 7.76563C7.59684 7.86325 7.54766 7.96486 7.54766 8.07044V12.071C7.54766 12.1766 7.59684 12.2742 7.69519 12.3639C7.79281 12.455 7.89442 12.5005 8 12.5005ZM8 6.35329C8.15042 6.35329 8.2824 6.2929 8.39593 6.17214C8.50875 6.05209 8.56515 5.9165 8.56515 5.76536C8.56515 5.61494 8.50875 5.48332 8.39593 5.37051C8.2824 5.25697 8.15042 5.2002 8 5.2002C7.84958 5.2002 7.71761 5.25697 7.60407 5.37051C7.49125 5.48332 7.43485 5.61494 7.43485 5.76536C7.43485 5.9165 7.49125 6.05209 7.60407 6.17214C7.71761 6.2929 7.84958 6.35329 8 6.35329ZM8 16.5C6.88488 16.5 5.84172 16.2928 4.87051 15.8784C3.89858 15.4641 3.05103 14.8953 2.32786 14.1721C1.6047 13.449 1.03593 12.6014 0.621559 11.6295C0.207186 10.6583 0 9.61512 0 8.5C0 7.38488 0.207186 6.34172 0.621559 5.37051C1.03593 4.39858 1.6047 3.55103 2.32786 2.82786C3.05103 2.1047 3.89858 1.53593 4.87051 1.12156C5.84172 0.707186 6.88488 0.5 8 0.5C9.11512 0.5 10.1583 0.707186 11.1295 1.12156C12.1014 1.53593 12.949 2.1047 13.6721 2.82786C14.3953 3.55103 14.9641 4.39858 15.3784 5.37051C15.7928 6.34172 16 7.38488 16 8.5C16 9.61512 15.7928 10.6583 15.3784 11.6295C14.9641 12.6014 14.3953 13.449 13.6721 14.1721C12.949 14.8953 12.1014 15.4641 11.1295 15.8784C10.1583 16.2928 9.11512 16.5 8 16.5ZM8 15.5736C9.95833 15.5736 11.627 14.8845 13.0061 13.5061C14.3845 12.127 15.0736 10.4583 15.0736 8.5C15.0736 6.54167 14.3845 4.87297 13.0061 3.4939C11.627 2.11555 9.95833 1.42637 8 1.42637C6.04167 1.42637 4.37297 2.11555 2.9939 3.4939C1.61555 4.87297 0.926373 6.54167 0.926373 8.5C0.926373 10.4583 1.61555 12.127 2.9939 13.5061C4.37297 14.8845 6.04167 15.5736 8 15.5736Z" fill="black"/>
</svg>
