<svg width="24" height="25" viewBox="0 0 24 25" fill="none" xmlns="http://www.w3.org/2000/svg">
<path d="M12.0051 0.500001C9.63128 0.498994 7.31051 1.20206 5.33634 2.52025C3.36217 3.83844 1.82331 5.71253 0.914427 7.90545C0.00554422 10.0984 -0.232527 12.5116 0.230333 14.8398C0.693194 17.1681 1.83619 19.3067 3.51472 20.9853C5.19326 22.6638 7.33192 23.8068 9.66017 24.2697C11.9884 24.7325 14.4016 24.4945 16.5946 23.5856C18.7875 22.6767 20.6616 21.1378 21.9798 19.1637C23.2979 17.1895 24.001 14.8687 24 12.4949C24 9.31366 22.7363 6.26271 20.4868 4.01323C18.2373 1.76375 15.1863 0.500001 12.0051 0.500001ZM11.496 16.8479H5.02504C4.75011 16.8479 3.76751 16.8886 3.54349 16.4151C3.37548 16.0537 3.66059 15.5089 4.36318 14.8114C6.30293 12.8716 8.32923 10.6264 8.32923 10.6264C8.32923 10.6264 8.67544 10.1733 7.97794 10.1733H5.22868C4.87703 10.2406 4.51294 10.1846 4.19767 10.015C3.88241 9.84527 3.63521 9.57218 3.49767 9.24163C3.43587 9.04998 3.42118 8.84626 3.45486 8.64773C3.48854 8.44921 3.56959 8.26172 3.69114 8.10118C4.10353 7.59206 4.8723 7.59206 5.2185 7.59206H11.4145C11.6222 7.59794 11.8257 7.65152 12.0093 7.74863C12.1929 7.84574 12.3517 7.98379 12.4735 8.1521C12.6277 8.43505 12.6781 8.76306 12.6158 9.07925C12.5535 9.39543 12.3824 9.67983 12.1324 9.88311C10.1773 11.8432 8.1205 14.0274 8.40052 14.3532C8.41493 14.368 8.43248 14.3793 8.45187 14.3863C8.47126 14.3934 8.49199 14.396 8.51252 14.3939H11.4603C11.6395 14.359 11.8242 14.3641 12.0012 14.4089C12.1781 14.4537 12.343 14.5372 12.4839 14.6533C12.6248 14.7693 12.7383 14.9151 12.8162 15.0802C12.8941 15.2453 12.9345 15.4256 12.9345 15.6082C12.9345 15.7907 12.8941 15.971 12.8162 16.1361C12.7383 16.3012 12.6248 16.447 12.4839 16.5631C12.343 16.6792 12.1781 16.7626 12.0012 16.8075C11.8242 16.8523 11.6395 16.8574 11.4603 16.8224L11.496 16.8479ZM20.3343 16.5424C20.0745 16.8114 19.7286 16.9807 19.3568 17.021H15.3704C14.9347 17.015 14.5101 16.8823 14.1485 16.6391C13.7869 16.3959 13.5038 16.0528 13.3339 15.6515V10.9115C13.3395 10.6947 13.3953 10.4821 13.4968 10.2904C13.5775 10.1462 13.6846 10.0183 13.8125 9.91366C14.0155 9.78212 14.2393 9.68573 14.4743 9.62855C14.7817 9.56545 15.0987 9.56545 15.406 9.62855C15.5816 9.65313 15.7496 9.71645 15.8977 9.81391C16.0459 9.91137 16.1705 10.0405 16.2626 10.1921C16.3547 10.3436 16.4119 10.5137 16.4302 10.6901C16.4485 10.8665 16.4273 11.0447 16.3683 11.2119L14.8154 12.7393H14.1179V13.7575H14.6271V15.2085H19.2092V13.7117H20.0543V13.0651L18.1451 11.5887C18.0483 11.3941 17.9978 11.1798 17.9978 10.9624C17.9978 10.7451 18.0483 10.5308 18.1451 10.3362C18.2399 10.1765 18.3673 10.0386 18.5191 9.93157C18.6709 9.82453 18.8436 9.75077 19.0259 9.71511C19.226 9.68517 19.4305 9.70439 19.6216 9.7711C19.8899 9.7896 20.1448 9.89502 20.3479 10.0714C20.5509 10.2478 20.6909 10.4855 20.7467 10.7486V15.514C20.726 15.8946 20.5708 16.2554 20.3089 16.5322L20.3343 16.5424ZM17.0607 11.2679L18.7 12.9073L18.7306 14.2412H15.6148V12.8411L17.0607 11.2679Z" fill="#00509D"/>
</svg>
