<svg width="16" height="20" viewBox="0 0 16 20" fill="none" xmlns="http://www.w3.org/2000/svg">
<path d="M2.59318 16.1567C2.31069 16.1567 2.07146 16.0535 1.87549 15.8471C1.68056 15.6407 1.5831 15.4072 1.5831 15.1466C1.5831 14.8651 1.68056 14.6212 1.87549 14.4148C2.07146 14.2084 2.31069 14.1052 2.59318 14.1052C2.85378 14.1052 3.08728 14.2136 3.29367 14.4305C3.50007 14.6473 3.60327 14.886 3.60327 15.1466C3.60327 15.4072 3.50007 15.6407 3.29367 15.8471C3.08728 16.0535 2.85378 16.1567 2.59318 16.1567ZM8.00011 16.1567C7.73951 16.1567 7.50601 16.0535 7.29962 15.8471C7.09322 15.6407 6.99002 15.4072 6.99002 15.1466C6.99002 14.8651 7.09322 14.6212 7.29962 14.4148C7.50601 14.2084 7.73951 14.1052 8.00011 14.1052C8.2826 14.1052 8.52131 14.2136 8.71624 14.4305C8.91221 14.6473 9.01019 14.886 9.01019 15.1466C9.01019 15.4072 8.907 15.6407 8.7006 15.8471C8.49421 16.0535 8.26071 16.1567 8.00011 16.1567ZM13.4399 16.1567C13.1793 16.1567 12.9458 16.0535 12.7394 15.8471C12.533 15.6407 12.4298 15.4072 12.4298 15.1466C12.4298 14.8651 12.533 14.6212 12.7394 14.4148C12.9458 14.2084 13.1793 14.1052 13.4399 14.1052C13.7005 14.1052 13.934 14.2136 14.1404 14.4305C14.3468 14.6473 14.45 14.886 14.45 15.1466C14.45 15.4072 14.3468 15.6407 14.1404 15.8471C13.934 16.0535 13.7005 16.1567 13.4399 16.1567ZM1.38765 10.978C1.10516 10.978 0.860714 10.8748 0.654319 10.6684C0.447924 10.462 0.344727 10.2176 0.344727 9.93511V9.60988C0.344727 7.72001 1.02333 6.09126 2.38053 4.72363C3.73774 3.35496 5.39359 2.59453 7.34809 2.44234V0.652021C7.34809 0.499831 7.41324 0.352852 7.54354 0.211086C7.67384 0.0703619 7.82603 0 8.00011 0C8.17419 0 8.33159 0.0703619 8.47232 0.211086C8.61408 0.352852 8.68497 0.499831 8.68497 0.652021V2.44234C10.6176 2.59453 12.2625 3.35496 13.6197 4.72363C14.9769 6.09126 15.6555 7.72001 15.6555 9.60988V9.93511C15.6555 10.1957 15.5471 10.4344 15.3303 10.6512C15.1124 10.8691 14.8732 10.978 14.6126 10.978H1.38765ZM1.68004 9.64272H14.3202C14.3202 8.01345 13.701 6.61767 12.4626 5.4554C11.2253 4.29417 9.73779 3.71355 8.00011 3.71355C6.26243 3.71355 4.77492 4.29417 3.5376 5.4554C2.29923 6.61767 1.68004 8.01345 1.68004 9.64272ZM2.59318 20C2.31069 20 2.07146 19.8973 1.87549 19.692C1.68056 19.4856 1.5831 19.2521 1.5831 18.9915C1.5831 18.7309 1.68056 18.4974 1.87549 18.291C2.07146 18.0846 2.31069 17.9814 2.59318 17.9814C2.85378 17.9814 3.08728 18.0846 3.29367 18.291C3.50007 18.4974 3.60327 18.7309 3.60327 18.9915C3.60327 19.2521 3.50007 19.4856 3.29367 19.692C3.08728 19.8973 2.85378 20 2.59318 20ZM8.00011 20C7.73951 20 7.50601 19.8973 7.29962 19.692C7.09322 19.4856 6.99002 19.2521 6.99002 18.9915C6.99002 18.7309 7.09322 18.4974 7.29962 18.291C7.50601 18.0846 7.73951 17.9814 8.00011 17.9814C8.2826 17.9814 8.52131 18.0846 8.71624 18.291C8.91221 18.4974 9.01019 18.7309 9.01019 18.9915C9.01019 19.2521 8.907 19.4856 8.7006 19.692C8.49421 19.8973 8.26071 20 8.00011 20ZM13.4399 20C13.1793 20 12.9458 19.8973 12.7394 19.692C12.533 19.4856 12.4298 19.2521 12.4298 18.9915C12.4298 18.7309 12.533 18.4974 12.7394 18.291C12.9458 18.0846 13.1793 17.9814 13.4399 17.9814C13.7005 17.9814 13.934 18.0846 14.1404 18.291C14.3468 18.4974 14.45 18.7309 14.45 18.9915C14.45 19.2521 14.3468 19.4856 14.1404 19.692C13.934 19.8973 13.7005 20 13.4399 20Z" fill="#686B6F"/>
</svg>
