<svg width="25" height="14" viewBox="0 0 25 14" fill="none" xmlns="http://www.w3.org/2000/svg">
<path d="M15.3633 10.8184L24.2724 10.8184" stroke="#211D31" strokeLinecap="round" strokeLinejoin="round"/>
<path d="M1.36426 10.8184H3.90971" stroke="#211D31" strokeLinecap="round" strokeLinejoin="round"/>
<path d="M9.77282 10.8185C9.77282 12.2997 8.57212 13.5004 7.091 13.5004C5.60987 13.5004 4.40918 12.2997 4.40918 10.8185C4.40918 9.33741 5.60987 8.13672 7.091 8.13672C8.57212 8.13672 9.77282 9.33741 9.77282 10.8185Z" stroke="#211D31" strokeLinecap="round" strokeLinejoin="round"/>
<path d="M23 3.18262H24.2727" stroke="#211D31" strokeLinecap="round" strokeLinejoin="round"/>
<path d="M1.36426 3.18262H10.2733" stroke="#211D31" strokeLinecap="round" strokeLinejoin="round"/>
<path d="M21.2269 3.18182C21.2269 4.66295 20.0262 5.86364 18.5451 5.86364C17.064 5.86364 15.8633 4.66295 15.8633 3.18182C15.8633 1.70069 17.064 0.5 18.5451 0.5C20.0262 0.5 21.2269 1.70069 21.2269 3.18182Z" stroke="#211D31" strokeLinecap="round" strokeLinejoin="round"/>
</svg>
