<svg width="18" height="18" viewBox="0 0 18 18" fill="none" xmlns="http://www.w3.org/2000/svg">
<path d="M7.95654 6.24219L8.74332 7.02896" stroke="#686B6F" stroke-width="0.6" strokeLinecap="round" strokeLinejoin="round"/>
<path d="M7.95654 8.32898L8.76766 7.51855" stroke="#686B6F" stroke-width="0.6" strokeLinecap="round" strokeLinejoin="round"/>
<path d="M4.47852 15.6084V16.9997" stroke="#686B6F" stroke-width="0.6" strokeLinecap="round" strokeLinejoin="round"/>
<path d="M13.5215 15.6084V16.9997" stroke="#686B6F" stroke-width="0.6" strokeLinecap="round" strokeLinejoin="round"/>
<path fillRule="evenodd" clipRule="evenodd" d="M15.6083 14.2429C15.6083 15.0109 14.9864 15.6084 14.217 15.6084H3.7824C3.01441 15.6084 2.39111 15.0109 2.39111 14.2429V13.1584C2.39111 12.5497 2.78693 12.0126 3.36849 11.8318C4.68674 11.4206 7.08949 10.7646 8.99972 10.7646C10.91 10.7646 13.3127 11.4206 14.631 11.8318C15.2118 12.0119 15.6083 12.5497 15.6083 13.1584V14.2429Z" stroke="#686B6F" stroke-width="0.6" strokeLinejoin="round"/>
<path d="M15.5454 12.7532C16.3893 12.4854 17 11.6958 17 10.7651C17 9.61101 16.0658 8.67676 14.9131 8.67676C13.7604 8.67676 12.8262 9.61101 12.8262 10.7651C12.8262 10.9668 12.8568 11.1623 12.9103 11.3473" stroke="#686B6F" stroke-width="0.6" strokeLinejoin="round"/>
<path d="M5.08969 11.3473C5.14325 11.1623 5.17386 10.9668 5.17386 10.7651C5.17386 9.6124 4.23961 8.67676 3.08693 8.67676C1.93425 8.67676 1 9.6124 1 10.7651C1 11.6958 1.61077 12.4854 2.45459 12.7532" stroke="#686B6F" stroke-width="0.6" strokeLinejoin="round"/>
<path d="M15.0901 8.66042C15.1972 8.20408 15.2605 7.73104 15.2605 7.24061C15.2605 3.79301 12.4668 1 9.01991 1C5.573 1 2.7793 3.79301 2.7793 7.24061C2.7793 7.73104 2.8419 8.20338 2.94903 8.65903" stroke="#686B6F" stroke-width="0.6" strokeLinejoin="round"/>
<path d="M9.23291 7.51953L10.0433 8.32926" stroke="#686B6F" stroke-width="0.6" strokeLinecap="round" strokeLinejoin="round"/>
<path d="M9.25635 7.03105L10.0438 6.24219" stroke="#686B6F" stroke-width="0.6" strokeLinecap="round" strokeLinejoin="round"/>
<path fillRule="evenodd" clipRule="evenodd" d="M9.3475 7.26091C9.3475 7.4529 9.19167 7.60873 8.99968 7.60873C8.80768 7.60873 8.65186 7.4529 8.65186 7.26091C8.65186 7.06891 8.80768 6.91309 8.99968 6.91309C9.19167 6.91309 9.3475 7.06891 9.3475 7.26091Z" stroke="#686B6F" stroke-width="0.6" strokeLinecap="round" strokeLinejoin="round"/>
</svg>
