<svg width="17" height="17" viewBox="0 0 17 17" fill="none" xmlns="http://www.w3.org/2000/svg">
<path d="M7.75962 2.45171C7.95962 1.83771 8.82829 1.83771 9.02762 2.45171L10.0403 5.56771C10.0839 5.70137 10.1686 5.81783 10.2823 5.90045C10.3961 5.98306 10.533 6.02761 10.6736 6.02771H13.9503C14.5963 6.02771 14.8643 6.85438 14.3423 7.23438L11.6916 9.15971C11.5778 9.24249 11.493 9.35918 11.4495 9.49307C11.4061 9.62696 11.4061 9.77117 11.4496 9.90504L12.4616 13.021C12.6616 13.6357 11.9583 14.1464 11.4363 13.7664L8.78562 11.841C8.67169 11.7582 8.53447 11.7136 8.39362 11.7136C8.25277 11.7136 8.11554 11.7582 8.00162 11.841L5.35095 13.7664C4.82895 14.1464 4.12562 13.635 4.32562 13.021L5.33762 9.90504C5.38114 9.77117 5.38116 9.62696 5.33769 9.49307C5.29422 9.35918 5.20948 9.24249 5.09562 9.15971L2.44495 7.23438C1.92228 6.85438 2.19162 6.02771 2.83695 6.02771H6.11295C6.25365 6.02775 6.39075 5.98327 6.50463 5.90064C6.61852 5.81802 6.70334 5.70148 6.74695 5.56771L7.75962 2.45171Z" fill="#28B446"/>
</svg>
