<svg width="19" height="17" viewBox="0 0 19 17" fill="none" xmlns="http://www.w3.org/2000/svg">
<path d="M7.03534 16.5V14.5137C7.03534 14.3116 6.9709 14.1505 6.84201 14.0304C6.71312 13.9112 6.5476 13.8517 6.34544 13.8517H0V12.7208H6.34544C6.84157 12.7208 7.26928 12.8952 7.62857 13.2439C7.98698 13.5934 8.16618 14.0167 8.16618 14.5137V16.5H7.03534ZM10.5113 16.5V14.5137C10.5113 14.0167 10.6861 13.5934 11.0357 13.2439C11.3853 12.8952 11.8081 12.7208 12.3042 12.7208H18.6762V13.8517H12.3042C12.1021 13.8517 11.941 13.9112 11.8209 14.0304C11.7017 14.1505 11.6421 14.3116 11.6421 14.5137V16.5H10.5113ZM3.25615 10.7345C2.48371 10.7345 1.83045 10.4675 1.29637 9.93342C0.763166 9.40022 0.496565 8.7474 0.496565 7.97497V4.96776H18.1809V7.97497C18.1809 8.7474 17.9095 9.40022 17.3665 9.93342C16.8236 10.4675 16.166 10.7345 15.3935 10.7345H3.25615ZM3.25615 9.60238H15.3935C15.8535 9.60238 16.2445 9.44171 16.5667 9.12038C16.8881 8.79816 17.0487 8.41636 17.0487 7.97497V6.09993H1.62873V7.97497C1.62873 8.41636 1.7894 8.79816 2.11073 9.12038C2.43295 9.44171 2.81475 9.60238 3.25615 9.60238ZM0.496565 2.9815V1.85066H6.56658V1.3819C6.56658 1.1612 6.65398 0.959047 6.82877 0.775428C7.00268 0.591809 7.21852 0.5 7.47629 0.5H11.2012C11.4404 0.5 11.6519 0.591809 11.8355 0.775428C12.0191 0.959047 12.1109 1.1612 12.1109 1.3819V1.85066H18.1809V2.9815H0.496565Z" fill="black"/>
</svg>
