<svg width="19" height="16" viewBox="0 0 19 16" fill="none" xmlns="http://www.w3.org/2000/svg">
<path d="M8.36049 15.6033L7.40682 14.7551C5.39352 12.9716 3.67607 11.2762 2.25447 9.66892C0.832871 8.06167 0.12207 6.40144 0.12207 4.68823C0.12207 3.38192 0.576864 2.27397 1.48645 1.36438C2.39604 0.454793 3.51289 0 4.837 0C5.61435 0 6.40907 0.194124 7.22117 0.582373C8.03412 0.971469 8.79366 1.67803 9.4998 2.70206C10.2059 1.67803 10.9608 0.971469 11.7644 0.582373C12.5681 0.194124 13.3586 0 14.1359 0C15.4778 0 16.6036 0.454793 17.5132 1.36438C18.4227 2.27397 18.8775 3.38192 18.8775 4.68823C18.8775 6.45485 18.118 8.15492 16.5989 9.78844C15.0807 11.422 13.3412 13.1394 11.3804 14.9408L10.6391 15.6033C10.3034 15.8678 9.92366 16 9.4998 16C9.07595 16 8.69618 15.8678 8.36049 15.6033ZM8.96956 3.78797C8.58132 2.97587 7.99428 2.32271 7.20846 1.8285C6.42264 1.33344 5.63215 1.08591 4.837 1.08591C3.77737 1.08591 2.90763 1.42584 2.22777 2.1057C1.54791 2.78556 1.20798 3.6464 1.20798 4.68823C1.20798 5.46557 1.42457 6.25182 1.85775 7.04697C2.29008 7.84127 2.86821 8.65803 3.59215 9.49726C4.31609 10.3356 5.14599 11.1876 6.08186 12.0531C7.01857 12.9186 8.01674 13.8371 9.07637 14.8086C9.19929 14.9145 9.34043 14.9675 9.4998 14.9675C9.65917 14.9675 9.80031 14.9145 9.92323 14.8086C10.9651 13.8727 11.9586 12.9589 12.9038 12.0671C13.849 11.1744 14.6789 10.3089 15.3935 9.47056C16.1089 8.63133 16.6875 7.81456 17.1291 7.02027C17.5708 6.22512 17.7916 5.44777 17.7916 4.68823C17.7916 3.6464 17.447 2.78556 16.7579 2.1057C16.0695 1.42584 15.2044 1.08591 14.1626 1.08591C13.3497 1.08591 12.5634 1.33344 11.8039 1.8285C11.0452 2.32271 10.4628 2.97587 10.0567 3.78797C10.0033 3.89393 9.92366 3.97785 9.81769 4.03974C9.71173 4.10162 9.60577 4.13256 9.4998 4.13256C9.41164 4.13256 9.31458 4.10162 9.20862 4.03974C9.10265 3.97785 9.02297 3.89393 8.96956 3.78797Z" fill="black"/>
</svg>
