<svg width="16" height="18" viewBox="0 0 16 18" fill="current" stroke="current" xmlns="http://www.w3.org/2000/svg">
<path d="M15.1052 10.9424H16V5.31082C16 5.0922 15.949 4.87741 15.847 4.66647C15.7451 4.45552 15.5998 4.27741 15.4112 4.13212L11.1542 1.11987C10.8923 0.930583 10.6049 0.835938 10.2919 0.835938C9.979 0.835938 9.69891 0.930583 9.45164 1.11987L5.19573 4.13212C5.00644 4.27741 4.8643 4.45552 4.7693 4.66647C4.67501 4.87741 4.62786 5.0922 4.62786 5.31082V7.23133H5.52262V5.26682C5.52262 5.17951 5.54079 5.09604 5.57711 5.01641C5.61343 4.93608 5.66791 4.86693 5.74055 4.80896L9.99751 1.86167C10.0848 1.78903 10.1868 1.75271 10.3035 1.75271C10.4194 1.75271 10.521 1.78903 10.6083 1.86167L14.8653 4.80896C14.9379 4.86693 14.9963 4.93608 15.0403 5.01641C15.0836 5.09604 15.1052 5.17951 15.1052 5.26682V10.9424ZM11.1762 5.63877C11.0742 5.63877 10.9834 5.5986 10.9038 5.51828C10.8235 5.43795 10.7833 5.3468 10.7833 5.24482C10.7833 5.14354 10.8235 5.05273 10.9038 4.97241C10.9834 4.89278 11.0742 4.85296 11.1762 4.85296C11.2782 4.85296 11.369 4.89278 11.4486 4.97241C11.529 5.05273 11.5691 5.14354 11.5691 5.24482C11.5691 5.36146 11.529 5.45611 11.4486 5.52875C11.369 5.6021 11.2782 5.63877 11.1762 5.63877ZM9.42964 5.63877C9.32836 5.63877 9.23755 5.5986 9.15723 5.51828C9.0769 5.43795 9.03674 5.3468 9.03674 5.24482C9.03674 5.14354 9.0769 5.05273 9.15723 4.97241C9.23755 4.89278 9.32836 4.85296 9.42964 4.85296C9.53162 4.85296 9.62277 4.89278 9.7031 4.97241C9.78273 5.05273 9.82254 5.14354 9.82254 5.24482C9.82254 5.36146 9.78273 5.45611 9.7031 5.52875C9.62277 5.6021 9.53162 5.63877 9.42964 5.63877ZM11.1762 7.3843C11.0742 7.3843 10.9834 7.34448 10.9038 7.26485C10.8235 7.18453 10.7833 7.09338 10.7833 6.9914C10.7833 6.88942 10.8235 6.79861 10.9038 6.71898C10.9834 6.63866 11.0742 6.59849 11.1762 6.59849C11.2782 6.59849 11.369 6.63866 11.4486 6.71898C11.529 6.79861 11.5691 6.88942 11.5691 6.9914C11.5691 7.10804 11.529 7.20269 11.4486 7.27533C11.369 7.34798 11.2782 7.3843 11.1762 7.3843ZM9.42964 7.3843C9.32836 7.3843 9.23755 7.34448 9.15723 7.26485C9.0769 7.18453 9.03674 7.09338 9.03674 6.9914C9.03674 6.88942 9.0769 6.79861 9.15723 6.71898C9.23755 6.63866 9.32836 6.59849 9.42964 6.59849C9.53162 6.59849 9.62277 6.63866 9.7031 6.71898C9.78273 6.79861 9.82254 6.88942 9.82254 6.9914C9.82254 7.10804 9.78273 7.20269 9.7031 7.27533C9.62277 7.34798 9.53162 7.3843 9.42964 7.3843ZM9.75758 16.2681C9.81555 16.2827 9.86654 16.2901 9.91055 16.2901C9.95386 16.2901 10.0048 16.2827 10.0635 16.2681L15.0183 14.7185C15.0183 14.4279 14.9491 14.2351 14.8108 14.1401C14.6725 14.0458 14.5014 13.9987 14.2974 13.9987H10.1505C9.85921 13.9987 9.56829 13.9805 9.27772 13.9442C8.98644 13.9072 8.68784 13.8453 8.3819 13.7587L6.96326 13.2998C6.83265 13.2565 6.74184 13.1765 6.69085 13.0599C6.63986 12.9432 6.63602 12.8196 6.67933 12.689C6.70866 12.5723 6.78515 12.4885 6.90878 12.4375C7.03241 12.3865 7.15989 12.3831 7.29121 12.4271L8.75385 12.9509C9.00111 13.0382 9.26305 13.0889 9.53965 13.1028C9.81555 13.1175 10.2011 13.1175 10.6964 13.1028H10.7613C10.776 13.1028 10.798 13.1028 10.8273 13.1028C10.856 13.1028 10.8849 13.1028 10.9143 13.1028C10.9143 12.8269 10.8633 12.609 10.7613 12.4491C10.6593 12.2884 10.514 12.1718 10.3255 12.0991L5.43566 10.3316C5.40633 10.3169 5.37734 10.3057 5.3487 10.2981C5.31936 10.2911 5.29003 10.2876 5.26069 10.2876H3.49316V14.4345L9.75758 16.2681ZM9.53965 17.0979L3.49316 15.3513C3.41982 15.7299 3.26335 16.01 3.02377 16.1916C2.78349 16.3739 2.45974 16.465 2.05252 16.465H1.41968C1.02643 16.465 0.691507 16.3267 0.414904 16.0501C0.138302 15.7735 0 15.439 0 15.0464V10.8334C0 10.4402 0.138302 10.1018 0.414904 9.81819C0.691507 9.5346 1.02643 9.39281 1.41968 9.39281H5.23869C5.326 9.39281 5.40982 9.40014 5.49014 9.41481C5.57047 9.42878 5.65394 9.45044 5.74055 9.47977L10.6523 11.2913C10.9723 11.408 11.2415 11.6154 11.4602 11.9137C11.6781 12.2119 11.787 12.6083 11.787 13.1028H14.2974C14.8213 13.1028 15.2289 13.2705 15.5201 13.6058C15.8107 13.9403 15.956 14.3476 15.956 14.8274C15.956 14.9734 15.9127 15.1117 15.8261 15.2423C15.7381 15.3736 15.6508 15.4536 15.5641 15.4823L10.3684 17.1199C10.2378 17.1492 10.1033 17.1639 9.96503 17.1639C9.82673 17.1639 9.68494 17.1419 9.53965 17.0979ZM0.873813 15.0464C0.873813 15.1917 0.920961 15.3153 1.01526 15.4173C1.11025 15.5193 1.23773 15.5703 1.39768 15.5703H2.05252C2.21247 15.5703 2.34344 15.5301 2.44542 15.4498C2.5467 15.3702 2.59734 15.2357 2.59734 15.0464V10.2876H1.39768C1.23773 10.2876 1.11025 10.3386 1.01526 10.4405C0.920961 10.5425 0.873813 10.6735 0.873813 10.8334V15.0464Z" fill="#686B6F"/>
</svg>
