<svg width="174" height="48" viewBox="0 0 174 48" fill="none" xmlns="http://www.w3.org/2000/svg">
<path d="M24.0102 2.1601e-06C19.2626 -0.00201168 14.621 1.40412 10.6727 4.0405C6.72434 6.67688 3.64662 10.4251 1.82885 14.8109C0.0110884 19.1967 -0.465054 24.0232 0.460667 28.6797C1.38639 33.3362 3.67237 37.6135 7.02944 40.9706C10.3865 44.3276 14.6638 46.6136 19.3203 47.5393C23.9768 48.4651 28.8033 47.9889 33.1891 46.1712C37.5749 44.3534 41.3231 41.2757 43.9595 37.3273C46.5959 33.379 48.002 28.7374 48 23.9898C48 17.6273 45.4725 11.5254 40.9735 7.02646C36.4746 2.5275 30.3727 2.1601e-06 24.0102 2.1601e-06ZM22.9919 32.6958H10.0501C9.50022 32.6958 7.53501 32.7773 7.08699 31.8303C6.75097 31.1073 7.32118 30.0178 8.72636 28.6228C12.6059 24.7433 16.6585 20.2529 16.6585 20.2529C16.6585 20.2529 17.3509 19.3466 15.9559 19.3466H10.4574C9.75406 19.4811 9.02588 19.3693 8.39535 19.0299C7.76482 18.6905 7.27042 18.1444 6.99534 17.4833C6.87173 17.1 6.84236 16.6925 6.90972 16.2955C6.97707 15.8984 7.13918 15.5234 7.38228 15.2024C8.20706 14.1841 9.7446 14.1841 10.437 14.1841H22.829C23.2443 14.1959 23.6513 14.303 24.0186 14.4973C24.3858 14.6915 24.7035 14.9676 24.947 15.3042C25.2555 15.8701 25.3562 16.5261 25.2315 17.1585C25.1069 17.7909 24.7649 18.3597 24.2647 18.7662C20.3547 22.6865 16.241 27.0547 16.801 27.7064C16.8299 27.7359 16.865 27.7586 16.9037 27.7727C16.9425 27.7868 16.984 27.792 17.025 27.7879H22.9207C23.279 27.7179 23.6484 27.7282 24.0023 27.8178C24.3563 27.9075 24.686 28.0744 24.9678 28.3065C25.2496 28.5387 25.4766 28.8303 25.6324 29.1605C25.7882 29.4907 25.869 29.8512 25.869 30.2164C25.869 30.5815 25.7882 30.9421 25.6324 31.2723C25.4766 31.6025 25.2496 31.8941 24.9678 32.1262C24.686 32.3584 24.3563 32.5253 24.0023 32.6149C23.6484 32.7046 23.279 32.7148 22.9207 32.6449L22.9919 32.6958ZM40.6686 32.0849C40.149 32.6227 39.4572 32.9614 38.7136 33.042H30.7408C29.8693 33.03 29.0202 32.7646 28.2969 32.2782C27.5737 31.7918 27.0076 31.1055 26.6678 30.3029V20.8231C26.6791 20.3894 26.7906 19.9642 26.9936 19.5808C27.155 19.2923 27.3692 19.0367 27.625 18.8273C28.031 18.5642 28.4785 18.3715 28.9487 18.2571C29.5634 18.1309 30.1973 18.1309 30.8121 18.2571C31.1633 18.3063 31.4992 18.4329 31.7955 18.6278C32.0917 18.8227 32.341 19.0811 32.5252 19.3842C32.7093 19.6872 32.8239 20.0275 32.8604 20.3802C32.897 20.733 32.8547 21.0895 32.7365 21.4238L29.6309 24.4786H28.2359V26.5151H29.2541V29.4171H38.4183V26.4234H40.1086V25.1302L36.2902 22.1773C36.0965 21.7882 35.9957 21.3595 35.9957 20.9249C35.9957 20.4903 36.0965 20.0616 36.2902 19.6725C36.4798 19.353 36.7347 19.0772 37.0383 18.8631C37.3418 18.6491 37.6872 18.5015 38.0518 18.4302C38.4521 18.3703 38.861 18.4088 39.2431 18.5422C39.7797 18.5792 40.2897 18.79 40.6957 19.1428C41.1018 19.4956 41.3818 19.9711 41.4934 20.4972V30.028C41.452 30.7891 41.1416 31.5108 40.6177 32.0645L40.6686 32.0849ZM34.1213 21.5358L37.4001 24.8146L37.4612 27.4824H31.2295V24.6822L34.1213 21.5358Z" fill="white"/>
<path d="M76.28 30.8H85.34V35H70.46V31.1L79.46 18.14H70.46V13.94H85.34V17.84L76.28 30.8ZM105.221 18.26V35H100.091V32.72C99.5711 33.46 98.8611 34.06 97.9611 34.52C97.0811 34.96 96.1011 35.18 95.0211 35.18C93.7411 35.18 92.6111 34.9 91.6311 34.34C90.6511 33.76 89.8911 32.93 89.3511 31.85C88.8111 30.77 88.5411 29.5 88.5411 28.04V18.26H93.6411V27.35C93.6411 28.47 93.9311 29.34 94.5111 29.96C95.0911 30.58 95.8711 30.89 96.8511 30.89C97.8511 30.89 98.6411 30.58 99.2211 29.96C99.8011 29.34 100.091 28.47 100.091 27.35V18.26H105.221ZM115.716 35.24C114.256 35.24 112.956 34.99 111.816 34.49C110.676 33.99 109.776 33.31 109.116 32.45C108.456 31.57 108.086 30.59 108.006 29.51H113.076C113.136 30.09 113.406 30.56 113.886 30.92C114.366 31.28 114.956 31.46 115.656 31.46C116.296 31.46 116.786 31.34 117.126 31.1C117.486 30.84 117.666 30.51 117.666 30.11C117.666 29.63 117.416 29.28 116.916 29.06C116.416 28.82 115.606 28.56 114.486 28.28C113.286 28 112.286 27.71 111.486 27.41C110.686 27.09 109.996 26.6 109.416 25.94C108.836 25.26 108.546 24.35 108.546 23.21C108.546 22.25 108.806 21.38 109.326 20.6C109.866 19.8 110.646 19.17 111.666 18.71C112.706 18.25 113.936 18.02 115.356 18.02C117.456 18.02 119.106 18.54 120.306 19.58C121.526 20.62 122.226 22 122.406 23.72H117.666C117.586 23.14 117.326 22.68 116.886 22.34C116.466 22 115.906 21.83 115.206 21.83C114.606 21.83 114.146 21.95 113.826 22.19C113.506 22.41 113.346 22.72 113.346 23.12C113.346 23.6 113.596 23.96 114.096 24.2C114.616 24.44 115.416 24.68 116.496 24.92C117.736 25.24 118.746 25.56 119.526 25.88C120.306 26.18 120.986 26.68 121.566 27.38C122.166 28.06 122.476 28.98 122.496 30.14C122.496 31.12 122.216 32 121.656 32.78C121.116 33.54 120.326 34.14 119.286 34.58C118.266 35.02 117.076 35.24 115.716 35.24ZM124.614 26.63C124.614 24.89 124.964 23.37 125.664 22.07C126.384 20.77 127.374 19.77 128.634 19.07C129.914 18.37 131.374 18.02 133.014 18.02C135.114 18.02 136.864 18.57 138.264 19.67C139.684 20.77 140.614 22.32 141.054 24.32H135.594C135.134 23.04 134.244 22.4 132.924 22.4C131.984 22.4 131.234 22.77 130.674 23.51C130.114 24.23 129.834 25.27 129.834 26.63C129.834 27.99 130.114 29.04 130.674 29.78C131.234 30.5 131.984 30.86 132.924 30.86C134.244 30.86 135.134 30.22 135.594 28.94H141.054C140.614 30.9 139.684 32.44 138.264 33.56C136.844 34.68 135.094 35.24 133.014 35.24C131.374 35.24 129.914 34.89 128.634 34.19C127.374 33.49 126.384 32.49 125.664 31.19C124.964 29.89 124.614 28.37 124.614 26.63ZM151.418 35.24C149.778 35.24 148.298 34.89 146.978 34.19C145.678 33.49 144.648 32.49 143.888 31.19C143.148 29.89 142.778 28.37 142.778 26.63C142.778 24.91 143.158 23.4 143.918 22.1C144.678 20.78 145.718 19.77 147.038 19.07C148.358 18.37 149.838 18.02 151.478 18.02C153.118 18.02 154.598 18.37 155.918 19.07C157.238 19.77 158.278 20.78 159.038 22.1C159.798 23.4 160.178 24.91 160.178 26.63C160.178 28.35 159.788 29.87 159.008 31.19C158.248 32.49 157.198 33.49 155.858 34.19C154.538 34.89 153.058 35.24 151.418 35.24ZM151.418 30.8C152.398 30.8 153.228 30.44 153.908 29.72C154.608 29 154.958 27.97 154.958 26.63C154.958 25.29 154.618 24.26 153.938 23.54C153.278 22.82 152.458 22.46 151.478 22.46C150.478 22.46 149.648 22.82 148.988 23.54C148.328 24.24 147.998 25.27 147.998 26.63C147.998 27.97 148.318 29 148.958 29.72C149.618 30.44 150.438 30.8 151.418 30.8Z" fill="white"/>
</svg>
