<svg width="9" height="14" viewBox="0 0 9 14" fill="none" xmlns="http://www.w3.org/2000/svg">
<path fillRule="evenodd" clipRule="evenodd" d="M3.04244 1.10398C3.74931 0.397114 4.70803 0 5.70769 0H7.64615C7.94354 0 8.18462 0.241077 8.18462 0.538462V3.12308C8.18462 3.42046 7.94354 3.66154 7.64615 3.66154H5.70769C5.67913 3.66154 5.65174 3.67288 5.63154 3.69308C5.61135 3.71328 5.6 3.74067 5.6 3.76923V5.16923H7.64615C7.81196 5.16923 7.96853 5.24562 8.07057 5.37632C8.17262 5.50701 8.20875 5.67743 8.16854 5.83829L7.52238 8.4229C7.46246 8.66261 7.24708 8.83077 7 8.83077H5.6V13.4615C5.6 13.7589 5.35892 14 5.06154 14H2.47692C2.17954 14 1.93846 13.7589 1.93846 13.4615V8.83077H0.538462C0.241077 8.83077 0 8.58969 0 8.29231V5.70769C0 5.41031 0.241077 5.16923 0.538462 5.16923H1.93846V3.76923C1.93846 2.76957 2.33558 1.81085 3.04244 1.10398ZM5.70769 1.07692C4.99365 1.07692 4.30885 1.36058 3.80394 1.86548C3.29904 2.37039 3.01538 3.05519 3.01538 3.76923V5.70769C3.01538 6.00508 2.77431 6.24615 2.47692 6.24615H1.07692V7.75385H2.47692C2.77431 7.75385 3.01538 7.99492 3.01538 8.29231V12.9231H4.52308V8.29231C4.52308 7.99492 4.76415 7.75385 5.06154 7.75385H6.57958L6.95651 6.24615H5.06154C4.76415 6.24615 4.52308 6.00508 4.52308 5.70769V3.76923C4.52308 3.45505 4.64788 3.15374 4.87004 2.93158C5.0922 2.70942 5.39351 2.58462 5.70769 2.58462H7.10769V1.07692H5.70769Z" fill="black"/>
</svg>
