<svg width="32" height="33" viewBox="0 0 32 33" fill="none" xmlns="http://www.w3.org/2000/svg">
<path d="M1.97154 15.554C1.51519 15.554 1.20123 15.3633 1.02964 14.9817C0.858054 14.6021 0.943847 14.2406 1.28702 13.8975L15.0322 1.23656C15.3754 0.931718 15.7751 0.779297 16.2315 0.779297C16.6878 0.779297 17.0876 0.931718 17.4308 1.23656L24.2185 7.39725V3.80214C24.2185 3.4973 24.3417 3.2308 24.5881 3.00262C24.8364 2.77445 25.112 2.66036 25.415 2.66036H26.8991C27.2021 2.66036 27.4777 2.77445 27.726 3.00262C27.9724 3.2308 28.0956 3.4973 28.0956 3.80214V10.9321L31.176 13.955C31.4808 14.2981 31.5575 14.6504 31.406 15.0119C31.2526 15.3733 30.9478 15.554 30.4914 15.554H30.4367C30.2833 15.554 30.1401 15.5248 30.0068 15.4664C29.8735 15.4098 29.7503 15.3249 29.6372 15.2117L16.2315 3.23262L3.16809 15.2117C3.05491 15.3249 2.9317 15.4098 2.79844 15.4664C2.66519 15.5248 2.54106 15.554 2.42607 15.554H1.97154ZM12.8089 32.7793C12.3142 32.7793 11.877 32.5986 11.4973 32.2372C11.1158 31.8757 10.9251 31.4486 10.9251 30.9557V23.5958C10.9251 23.1011 11.1158 22.673 11.4973 22.3116C11.877 21.952 12.3142 21.7722 12.8089 21.7722H19.7116C20.1679 21.7722 20.586 21.952 20.9656 22.3116C21.3471 22.673 21.5379 23.1011 21.5379 23.5958V30.9557C21.5379 31.4486 21.3471 31.8757 20.9656 32.2372C20.586 32.5986 20.1679 32.7793 19.7116 32.7793H12.8089ZM13.2661 30.4985H19.1968V24.1105H13.2661V30.4985Z" fill="white"/>
</svg>
