<svg width="35" height="33" viewBox="0 0 35 33" fill="none" xmlns="http://www.w3.org/2000/svg">
<path d="M2.63361 32.7793C2.17591 32.7793 1.77986 32.6121 1.44546 32.2777C1.11105 31.9433 0.943848 31.5472 0.943848 31.0895V10.2424C0.943848 9.96035 1.03167 9.66141 1.20732 9.34558C1.38297 9.02976 1.64728 8.80091 2.00026 8.65904L22.1077 0.901848C22.6701 0.690733 23.2071 0.752379 23.7189 1.08678C24.2289 1.4195 24.484 1.88564 24.484 2.48521V18.1592H27.9673C27.9673 17.2793 28.284 16.5142 28.9174 15.864C29.5507 15.212 30.3242 14.8861 31.2379 14.8861C32.1533 14.8861 32.9361 15.212 33.5864 15.864C34.2383 16.5142 34.5643 17.297 34.5643 18.2124V31.0895C34.5643 31.5472 34.3886 31.9433 34.0373 32.2777C33.6843 32.6121 33.279 32.7793 32.8213 32.7793H2.63361ZM3.10735 30.6158H11.3408H13.5043V19.849C13.5043 19.4267 13.6715 19.0391 14.0059 18.6861C14.3403 18.3348 14.7364 18.1592 15.1941 18.1592H22.3179V15.9957V3.11855L3.10735 10.5591V30.6158ZM15.6704 30.6158H22.3711V27.5023C22.3711 27.1138 22.5383 26.744 22.8727 26.3927C23.2071 26.0414 23.5855 25.8657 24.0077 25.8657C24.4299 25.8657 24.8082 26.0414 25.1426 26.3927C25.477 26.744 25.6442 27.1138 25.6442 27.5023V30.6158H32.4008V20.3227H15.6704V30.6158Z" fill="white"/>
</svg>
