<svg width="15" height="14" viewBox="0 0 15 14" fill="none" xmlns="http://www.w3.org/2000/svg">
<path fillRule="evenodd" clipRule="evenodd" d="M2.58264 0C1.54542 0 0.70459 0.840831 0.70459 1.87805C0.70459 2.91527 1.54542 3.7561 2.58264 3.7561C3.61986 3.7561 4.46069 2.91527 4.46069 1.87805C4.46069 0.840831 3.61986 0 2.58264 0ZM1.72898 1.87805C1.72898 1.40659 2.11118 1.02439 2.58264 1.02439C3.0541 1.02439 3.4363 1.40659 3.4363 1.87805C3.4363 2.34951 3.0541 2.73171 2.58264 2.73171C2.11118 2.73171 1.72898 2.34951 1.72898 1.87805Z" fill="black"/>
<path fillRule="evenodd" clipRule="evenodd" d="M0.70459 4.60976C0.70459 4.32688 0.933907 4.09756 1.21678 4.09756H3.94849C4.23137 4.09756 4.46069 4.32688 4.46069 4.60976V13.4878C4.46069 13.7707 4.23137 14 3.94849 14H1.21678C0.933907 14 0.70459 13.7707 0.70459 13.4878V4.60976ZM1.72898 5.12195V12.9756H3.4363V5.12195H1.72898Z" fill="black"/>
<path fillRule="evenodd" clipRule="evenodd" d="M5.48508 4.60976C5.48508 4.32688 5.7144 4.09756 5.99727 4.09756H8.72898C9.01186 4.09756 9.24118 4.32688 9.24118 4.60976V4.90616L9.53843 4.77877C10.0495 4.55974 10.596 4.42239 11.1488 4.37214C13.0439 4.19986 14.7046 5.68904 14.7046 7.60115V13.4878C14.7046 13.7707 14.4753 14 14.1924 14H11.4607C11.1778 14 10.9485 13.7707 10.9485 13.4878V8.70732C10.9485 8.48091 10.8586 8.26378 10.6985 8.10369C10.5384 7.9436 10.3212 7.85366 10.0948 7.85366C9.86843 7.85366 9.6513 7.9436 9.49121 8.10369C9.33111 8.26378 9.24118 8.48091 9.24118 8.70732V13.4878C9.24118 13.7707 9.01186 14 8.72898 14H5.99727C5.7144 14 5.48508 13.7707 5.48508 13.4878V4.60976ZM6.50947 5.12195V12.9756H8.21678V8.70732C8.21678 8.20923 8.41465 7.73154 8.76685 7.37934C9.11906 7.02713 9.59674 6.82927 10.0948 6.82927C10.5929 6.82927 11.0706 7.02713 11.4228 7.37934C11.775 7.73154 11.9729 8.20923 11.9729 8.70732V12.9756H13.6802V7.60115C13.6802 6.30059 12.5459 5.27375 11.2415 5.39233C10.7949 5.43293 10.3533 5.54405 9.94196 5.72033L8.93074 6.15371C8.77249 6.22153 8.59076 6.20531 8.44702 6.11053C8.30329 6.01575 8.21678 5.8551 8.21678 5.68293V5.12195H6.50947Z" fill="black"/>
</svg>
