<svg width="14" height="20" viewBox="0 0 14 20" fill="none" xmlns="http://www.w3.org/2000/svg">
<path d="M6.81631 15.4296C8.70078 13.9501 10.1317 12.5103 11.109 11.1103C12.0872 9.70938 12.5762 8.35753 12.5762 7.05472C12.5762 5.96242 12.378 5.03752 11.9815 4.28001C11.585 3.5225 11.0963 2.91041 10.5155 2.44373C9.93384 1.97705 9.30865 1.6338 8.63991 1.41399C7.97032 1.19333 7.36246 1.083 6.81631 1.083C6.27016 1.083 5.66229 1.19333 4.99271 1.41399C4.32397 1.6338 3.69877 1.97705 3.11711 2.44373C2.5363 2.91041 2.05229 3.5225 1.66508 4.28001C1.27703 5.03752 1.083 5.96242 1.083 7.05472C1.083 8.35753 1.57166 9.70938 2.54898 11.1103C3.52715 12.5103 4.94959 13.9501 6.81631 15.4296ZM6.81631 16.5126C6.71063 16.5126 6.60072 16.4995 6.48659 16.4733C6.37161 16.4462 6.27016 16.3976 6.18223 16.3274C4.0864 14.6543 2.53207 13.056 1.51924 11.5326C0.506415 10.0091 0 8.51648 0 7.05472C0 5.90916 0.198254 4.89633 0.594762 4.01623C0.990425 3.13529 1.51882 2.39976 2.17995 1.80965C2.84023 1.21954 3.57999 0.770613 4.39921 0.462875C5.21759 0.154292 6.02329 0 6.81631 0C7.62623 0 8.43658 0.154292 9.24735 0.462875C10.0573 0.770613 10.7924 1.21954 11.4527 1.80965C12.1138 2.39976 12.6468 3.13064 13.0518 4.00228C13.4568 4.87477 13.6592 5.89225 13.6592 7.05472C13.6592 8.51648 13.1486 10.0091 12.1273 11.5326C11.1052 13.056 9.54621 14.6543 7.45038 16.3274C7.3447 16.3976 7.23903 16.4462 7.13335 16.4733C7.02767 16.4995 6.92199 16.5126 6.81631 16.5126ZM6.81631 8.48139C7.27453 8.48139 7.65752 8.3271 7.96525 8.01852C8.27384 7.70993 8.42813 7.33583 8.42813 6.8962C8.42813 6.43798 8.27384 6.05457 7.96525 5.74599C7.65752 5.43825 7.27453 5.28438 6.81631 5.28438C6.35808 5.28438 5.97933 5.43825 5.68005 5.74599C5.38076 6.05457 5.23112 6.43798 5.23112 6.8962C5.23112 7.35358 5.38541 7.73234 5.69399 8.03246C6.00173 8.33175 6.37584 8.48139 6.81631 8.48139ZM0.528818 20C0.387631 20 0.264198 19.9472 0.158519 19.8415C0.0528396 19.7358 0 19.6124 0 19.4712C0 19.3308 0.0528396 19.2032 0.158519 19.0882C0.264198 18.9741 0.387631 18.917 0.528818 18.917H13.1038C13.245 18.917 13.3726 18.9741 13.4868 19.0882C13.6018 19.2032 13.6592 19.3308 13.6592 19.4712C13.6592 19.6124 13.6018 19.7358 13.4868 19.8415C13.3726 19.9472 13.245 20 13.1038 20H0.528818Z" fill="#686B6F"/>
</svg>
