<svg width="17" height="16" viewBox="0 0 17 16" fill="none" xmlns="http://www.w3.org/2000/svg">
<mask id="path-1-inside-1_3527_17388" fill="white">
<path d="M4.83431 0H2.3888C1.45864 0 0.70459 0.754047 0.70459 1.68421C0.70459 9.5906 7.11399 16 15.0204 16C15.9505 16 16.7046 15.246 16.7046 14.3158V11.8703C16.7046 11.1433 16.262 10.4896 15.5871 10.2197L13.2443 9.28253C12.638 9.04002 11.9475 9.1494 11.4459 9.56743L10.8407 10.0718C10.1343 10.6604 9.09566 10.6133 8.4455 9.96313L6.74146 8.25909C6.0913 7.60893 6.04418 6.57027 6.63281 5.86391L7.13716 5.25869C7.55519 4.75706 7.66457 4.06662 7.42206 3.46034L6.48493 1.11753C6.21495 0.442579 5.56125 0 4.83431 0Z"/>
</mask>
<path d="M6.48493 1.11753L5.55646 1.48892L6.48493 1.11753ZM7.42206 3.46034L8.35053 3.08895V3.08895L7.42206 3.46034ZM7.13716 5.25869L7.90538 5.89888L7.90538 5.89888L7.13716 5.25869ZM6.63281 5.86391L7.40103 6.5041L6.63281 5.86391ZM6.74146 8.25909L6.03435 8.9662L6.74146 8.25909ZM8.4455 9.96313L9.1526 9.25602V9.25602L8.4455 9.96313ZM10.8407 10.0718L10.2005 9.30356L10.8407 10.0718ZM11.4459 9.56743L12.0861 10.3357L12.0861 10.3357L11.4459 9.56743ZM13.2443 9.28253L12.8729 10.211L13.2443 9.28253ZM15.5871 10.2197L15.9585 9.29118L15.5871 10.2197ZM2.3888 1H4.83431V-1H2.3888V1ZM5.55646 1.48892L6.49358 3.83173L8.35053 3.08895L7.41341 0.746137L5.55646 1.48892ZM6.36894 4.61851L5.86459 5.22373L7.40103 6.5041L7.90538 5.89888L6.36894 4.61851ZM6.03435 8.9662L7.73839 10.6702L9.1526 9.25602L7.44857 7.55199L6.03435 8.9662ZM11.4809 10.84L12.0861 10.3357L10.8057 8.79921L10.2005 9.30356L11.4809 10.84ZM12.8729 10.211L15.2157 11.1481L15.9585 9.29118L13.6156 8.35406L12.8729 10.211ZM15.7046 11.8703V14.3158H17.7046V11.8703H15.7046ZM15.0204 15C7.66627 15 1.70459 9.03832 1.70459 1.68421H-0.29541C-0.29541 10.1429 6.5617 17 15.0204 17V15ZM15.7046 14.3158C15.7046 14.6937 15.3983 15 15.0204 15V17C16.5028 17 17.7046 15.7982 17.7046 14.3158H15.7046ZM15.2157 11.1481C15.511 11.2662 15.7046 11.5522 15.7046 11.8703H17.7046C17.7046 10.7344 17.0131 9.71302 15.9585 9.29118L15.2157 11.1481ZM12.0861 10.3357C12.3055 10.1528 12.6076 10.1049 12.8729 10.211L13.6156 8.35406C12.6683 7.97513 11.5895 8.14603 10.8057 8.79921L12.0861 10.3357ZM7.73839 10.6702C8.75427 11.6861 10.3772 11.7597 11.4809 10.84L10.2005 9.30356C9.89146 9.56108 9.43705 9.54047 9.1526 9.25602L7.73839 10.6702ZM5.86459 5.22373C4.94485 6.32741 5.01847 7.95032 6.03435 8.9662L7.44857 7.55199C7.16412 7.26754 7.14351 6.81313 7.40103 6.5041L5.86459 5.22373ZM6.49358 3.83173C6.59968 4.09698 6.55183 4.39904 6.36894 4.61851L7.90538 5.89888C8.55856 5.11507 8.72946 4.03626 8.35053 3.08895L6.49358 3.83173ZM4.83431 1C5.15235 1 5.43834 1.19363 5.55646 1.48892L7.41341 0.746137C6.99157 -0.30847 5.97016 -1 4.83431 -1V1ZM2.3888 -1C0.906352 -1 -0.29541 0.201762 -0.29541 1.68421H1.70459C1.70459 1.30633 2.01092 1 2.3888 1V-1Z" fill="black" mask="url(#path-1-inside-1_3527_17388)"/>
</svg>
