<svg width="78" height="26" viewBox="0 0 78 26" fill="none" xmlns="http://www.w3.org/2000/svg">
<path fillRule="evenodd" clipRule="evenodd" d="M11.9091 25L1 19.5455V16.2727L11.9091 21.7273L22.8182 16.2727V19.5455L11.9091 25Z" stroke="url(#paint0_angular_3485_12949)" stroke-width="2" strokeLinecap="round" strokeLinejoin="round"/>
<path fillRule="evenodd" clipRule="evenodd" d="M11.9091 17.3633L1 11.9087V8.63601L11.9091 14.0906L22.8182 8.63601V11.9087L11.9091 17.3633Z" stroke="url(#paint1_angular_3485_12949)" stroke-width="2" strokeLinecap="round" strokeLinejoin="round"/>
<path fillRule="evenodd" clipRule="evenodd" d="M11.9091 9.72754L1 4.27299V1.00027L11.9091 6.45481L22.8182 1.00027V4.27299L11.9091 9.72754Z" stroke="url(#paint2_angular_3485_12949)" stroke-width="2" strokeLinecap="round" strokeLinejoin="round"/>
<path d="M43.4584 18.74C42.221 18.74 41.245 18.4093 40.5304 17.748C39.8157 17.0867 39.4584 16.18 39.4584 15.028H40.5464C40.5464 15.8707 40.8077 16.5427 41.3304 17.044C41.853 17.5347 42.5624 17.78 43.4584 17.78C44.2584 17.78 44.8824 17.5933 45.3304 17.22C45.7784 16.8467 46.0024 16.324 46.0024 15.652C46.0024 14.5853 45.357 13.8707 44.0664 13.508L42.1784 12.932C40.589 12.4947 39.7944 11.524 39.7944 10.02C39.7944 9.13467 40.1144 8.42 40.7544 7.876C41.405 7.332 42.2477 7.06 43.2824 7.06C44.3704 7.06 45.2344 7.364 45.8744 7.972C46.525 8.56933 46.8504 9.38533 46.8504 10.42H45.7624C45.7624 9.652 45.5384 9.06 45.0904 8.644C44.653 8.21733 44.0397 8.004 43.2504 8.004C42.5357 8.004 41.9597 8.18533 41.5224 8.548C41.0957 8.9 40.8824 9.36933 40.8824 9.956C40.8824 10.5 41.053 10.948 41.3944 11.3C41.7357 11.652 42.2637 11.9293 42.9784 12.132L44.8024 12.676C46.317 13.1027 47.0744 14.084 47.0744 15.62C47.0744 16.5693 46.749 17.3267 46.0984 17.892C45.4477 18.4573 44.5677 18.74 43.4584 18.74ZM52.106 18.676C51.0073 18.676 50.1273 18.324 49.466 17.62C48.8047 16.916 48.474 15.9933 48.474 14.852C48.474 13.7107 48.8047 12.7933 49.466 12.1C50.1273 11.396 51.0073 11.044 52.106 11.044C53.0553 11.044 53.8287 11.284 54.426 11.764C55.0233 12.2333 55.3647 12.8733 55.45 13.684H54.41C54.314 13.1293 54.0633 12.708 53.658 12.42C53.2633 12.1213 52.7407 11.972 52.09 11.972C51.3007 11.972 50.6713 12.2333 50.202 12.756C49.7433 13.268 49.514 13.9667 49.514 14.852C49.514 15.7373 49.7433 16.4413 50.202 16.964C50.6713 17.476 51.3007 17.732 52.09 17.732C52.7407 17.732 53.2633 17.5933 53.658 17.316C54.0633 17.028 54.314 16.612 54.41 16.068H55.45C55.3647 16.868 55.0233 17.5027 54.426 17.972C53.8287 18.4413 53.0553 18.676 52.106 18.676ZM57.364 18.5V11.204H58.404V13.124C58.5533 12.4413 58.8413 11.9293 59.268 11.588C59.7053 11.236 60.2013 11.06 60.756 11.06C60.9587 11.06 61.1773 11.0813 61.412 11.124V12.084C61.188 12.052 60.9587 12.036 60.724 12.036C59.9453 12.036 59.364 12.3613 58.98 13.012C58.596 13.6627 58.404 14.4413 58.404 15.348V18.5H57.364ZM68.6884 17.588C68.0057 18.324 67.099 18.692 65.9684 18.692C64.8377 18.692 63.9257 18.324 63.2324 17.588C62.5497 16.852 62.2084 15.94 62.2084 14.852C62.2084 13.764 62.5497 12.852 63.2324 12.116C63.9257 11.38 64.8377 11.012 65.9684 11.012C67.099 11.012 68.0057 11.38 68.6884 12.116C69.371 12.8413 69.7124 13.7533 69.7124 14.852C69.7124 15.94 69.371 16.852 68.6884 17.588ZM63.9844 16.916C64.4857 17.4707 65.147 17.748 65.9684 17.748C66.7897 17.748 67.4457 17.4707 67.9364 16.916C68.4377 16.3613 68.6884 15.6733 68.6884 14.852C68.6884 14.02 68.443 13.332 67.9524 12.788C67.4617 12.2333 66.8004 11.956 65.9684 11.956C65.1364 11.956 64.475 12.2333 63.9844 12.788C63.4937 13.332 63.2484 14.02 63.2484 14.852C63.2484 15.6733 63.4937 16.3613 63.9844 16.916ZM71.6296 18.5V7.3H72.6696V18.5H71.6296ZM75.2234 18.5V7.3H76.2634V18.5H75.2234Z" fill="#45474A"/>
<defs>
<radialGradient id="paint0_angular_3485_12949" cx="0" cy="0" r="1" gradientUnits="userSpaceOnUse" gradientTransform="translate(11.9091 20.6364) rotate(-123.817) scale(5.07325 9.3832)">
<stop offset="0.45" stop-color="#336AEB"/>
<stop offset="0.64" stop-color="#48442E"/>
<stop offset="0.77" stop-color="#B4ADA5"/>
<stop offset="0.9" stop-color="#413663"/>
<stop offset="1" stop-color="#3A2F38"/>
</radialGradient>
<radialGradient id="paint1_angular_3485_12949" cx="0" cy="0" r="1" gradientUnits="userSpaceOnUse" gradientTransform="translate(11.9091 12.9996) rotate(-123.817) scale(5.07325 9.3832)">
<stop offset="0.45" stop-color="#336AEB"/>
<stop offset="0.64" stop-color="#48442E"/>
<stop offset="0.77" stop-color="#B4ADA5"/>
<stop offset="0.9" stop-color="#413663"/>
<stop offset="1" stop-color="#3A2F38"/>
</radialGradient>
<radialGradient id="paint2_angular_3485_12949" cx="0" cy="0" r="1" gradientUnits="userSpaceOnUse" gradientTransform="translate(11.9091 5.3639) rotate(-123.817) scale(5.07325 9.3832)">
<stop offset="0.45" stop-color="#336AEB"/>
<stop offset="0.64" stop-color="#48442E"/>
<stop offset="0.77" stop-color="#B4ADA5"/>
<stop offset="0.9" stop-color="#413663"/>
<stop offset="1" stop-color="#3A2F38"/>
</radialGradient>
</defs>
</svg>
