<svg width="13" height="13" viewBox="0 0 13 13" fill="none" xmlns="http://www.w3.org/2000/svg">
<path d="M11.543 10.4606C12.1589 9.69433 12.5873 8.78596 12.7919 7.81231C12.9965 6.83866 12.9713 5.82839 12.7184 4.86695C12.4656 3.9055 11.9925 3.02118 11.3391 2.28878C10.6858 1.55638 9.87154 0.997454 8.96514 0.659284C8.05874 0.321114 7.0869 0.213648 6.13184 0.345976C5.17678 0.478305 4.26659 0.846536 3.47827 1.41952C2.68995 1.9925 2.04669 2.75338 1.6029 3.63778C1.15912 4.52219 0.927869 5.50411 0.928713 6.50047C0.929037 7.9489 1.42267 9.35094 2.32299 10.4606L2.31442 10.4681C2.34444 10.5054 2.37875 10.5373 2.40963 10.5741C2.44823 10.6198 2.48983 10.6628 2.52971 10.7071C2.6498 10.842 2.77332 10.9714 2.90284 11.093C2.94229 11.1302 2.98304 11.1648 3.02292 11.2003C3.16016 11.3227 3.30127 11.4389 3.44751 11.5471C3.46638 11.5604 3.48354 11.5777 3.50241 11.5914V11.5861C4.50688 12.317 5.70517 12.7092 6.93343 12.7092C8.16169 12.7092 9.35998 12.317 10.3645 11.5861V11.5914C10.3833 11.5777 10.4 11.5604 10.4193 11.5471C10.5652 11.4384 10.7067 11.3227 10.8439 11.2003C10.8838 11.1648 10.9246 11.1298 10.964 11.093C11.0935 10.971 11.2171 10.842 11.3371 10.7071C11.377 10.6628 11.4182 10.6198 11.4572 10.5741C11.4877 10.5373 11.5224 10.5054 11.5524 10.4677L11.543 10.4606ZM6.933 2.95278C7.31471 2.95278 7.68785 3.06982 8.00522 3.2891C8.3226 3.50837 8.56997 3.82004 8.71604 4.18468C8.86212 4.54933 8.90034 4.95057 8.82587 5.33768C8.7514 5.72478 8.56759 6.08036 8.29768 6.35944C8.02777 6.63853 7.68389 6.82859 7.30952 6.90559C6.93514 6.98259 6.54709 6.94307 6.19444 6.79203C5.84179 6.64099 5.54037 6.38521 5.32831 6.05704C5.11624 5.72887 5.00305 5.34305 5.00305 4.94836C5.00305 4.4191 5.20639 3.91152 5.56832 3.53727C5.93026 3.16303 6.42115 2.95278 6.933 2.95278ZM3.50498 10.4606C3.51242 9.8783 3.74127 9.32246 4.14202 8.91332C4.54277 8.50417 5.08319 8.27461 5.64637 8.27432H8.21963C8.78281 8.27461 9.32324 8.50417 9.72398 8.91332C10.1247 9.32246 10.3536 9.8783 10.361 10.4606C9.42042 11.337 8.19916 11.822 6.933 11.822C5.66684 11.822 4.44558 11.337 3.50498 10.4606Z" fill="white"/>
</svg>
