<svg width="15" height="12" viewBox="0 0 15 12" fill="none" xmlns="http://www.w3.org/2000/svg">
<path fillRule="evenodd" clipRule="evenodd" d="M9.48511 0.0546691C9.82844 -0.00414148 10.2129 -0.0237778 10.5747 0.0374371C11.221 0.146764 11.8179 0.447109 12.2897 0.897401C12.5981 0.904377 12.9012 0.843614 13.1694 0.756993C13.3964 0.683684 13.5882 0.595165 13.7225 0.525174C13.7893 0.490373 13.8409 0.460686 13.8745 0.440588C13.8912 0.430555 13.9034 0.422961 13.9106 0.418375L13.9171 0.414281C14.1175 0.280747 14.3844 0.306736 14.5552 0.476589C14.726 0.646482 14.7535 0.91319 14.621 1.11438C14.4807 1.32731 14.286 1.7069 14.0678 2.1322C14.0335 2.19908 13.9986 2.26708 13.9633 2.33574C13.8381 2.57884 13.7098 2.82454 13.5902 3.03534C13.5151 3.1677 13.4348 3.30207 13.3539 3.41819V3.60309C13.359 4.28223 13.2811 4.95784 13.123 5.6151C13.0236 6.02864 12.8923 6.43492 12.7301 6.83025C12.3098 7.85453 11.6895 8.78477 10.9056 9.56665C10.1217 10.3485 9.1899 10.9664 8.16455 11.3841C7.14012 11.8015 6.04285 12.0107 4.93674 11.9996C3.33326 12.001 1.76351 11.539 0.416386 10.6692C0.217969 10.5411 0.134429 10.2929 0.215023 10.0708C0.295616 9.84884 0.518948 9.712 0.753342 9.74101C0.956188 9.76611 1.16042 9.77837 1.36481 9.7777C2.09922 9.77564 2.81964 9.61337 3.47733 9.30768C3.26828 9.21252 3.06869 9.09518 2.88219 8.95688C2.334 8.55039 1.92615 7.98313 1.7154 7.33404C1.66063 7.16536 1.69807 6.98033 1.81411 6.84621C1.81618 6.84381 1.81828 6.84144 1.8204 6.83908C1.69646 6.72856 1.58048 6.60822 1.47371 6.47881C0.993325 5.89652 0.728808 5.16618 0.724904 4.41132L0.72489 4.4087L0.724897 4.37494C0.724897 4.19538 0.819953 4.02925 0.974745 3.93827C1.01398 3.91521 1.05557 3.89785 1.09836 3.8862C0.869866 3.43029 0.751043 2.92686 0.751911 2.41612C0.751641 1.83751 0.90278 1.26889 1.19032 0.766769C1.27332 0.621816 1.42246 0.527107 1.58895 0.513616C1.75544 0.500125 1.91788 0.569587 2.02314 0.699285C2.6732 1.50025 3.48448 2.15551 4.40429 2.62249C4.87713 2.86254 5.3732 3.05009 5.88363 3.18275C6.1698 3.25712 6.46047 3.31425 6.75409 3.35371C6.74116 2.86526 6.83761 2.37707 7.04003 1.92599C7.33697 1.26427 7.84515 0.719819 8.48485 0.378032C8.75577 0.233286 9.1154 0.117997 9.48511 0.0546691ZM1.86844 5.15183C1.956 5.39826 2.08625 5.62944 2.25512 5.83414C2.58694 6.23633 3.04749 6.51158 3.55887 6.61331C3.78665 6.65862 3.95443 6.85304 3.96593 7.08501C3.97743 7.31697 3.8297 7.52703 3.60751 7.59465C3.42348 7.65065 3.23494 7.68967 3.04425 7.71135C3.17026 7.87377 3.31849 8.01927 3.48557 8.14317C3.86457 8.4242 4.32174 8.5801 4.79347 8.58918C5.0075 8.5933 5.19583 8.73153 5.26392 8.93448C5.33202 9.13743 5.26517 9.36128 5.09693 9.49365C4.38838 10.0512 3.56905 10.4399 2.70086 10.6384C3.42043 10.8689 4.17509 10.9875 4.93843 10.9866L4.94431 10.9866C5.91685 10.9967 6.88165 10.8129 7.78235 10.446C8.68306 10.079 9.50163 9.53626 10.1902 8.84942C10.8788 8.16258 11.4237 7.34542 11.7929 6.44565C11.9355 6.09837 12.0507 5.74148 12.1381 5.3782C12.2771 4.80026 12.3455 4.20619 12.3408 3.609L12.3408 3.60504V3.24711C12.3408 3.1243 12.3855 3.00566 12.4664 2.9133C12.5132 2.85992 12.595 2.73663 12.7092 2.53544C12.8176 2.34423 12.9377 2.11468 13.0626 1.87211C13.0701 1.85744 13.0777 1.84269 13.0853 1.82788C12.7614 1.89821 12.3943 1.93508 12.0095 1.89349C11.8876 1.88032 11.7747 1.82339 11.6916 1.73327C11.352 1.36498 10.8997 1.11983 10.4058 1.03626C10.1866 0.999181 9.92162 1.00767 9.65614 1.05314C9.36769 1.10255 9.11666 1.18901 8.96223 1.27152C8.52037 1.5076 8.16936 1.88366 7.96426 2.34072C7.75916 2.79779 7.71156 3.31 7.82894 3.79703C7.86636 3.9523 7.82835 4.11612 7.72639 4.23906C7.62442 4.36199 7.47045 4.42963 7.31094 4.42156C6.74134 4.39275 6.17778 4.30587 5.62881 4.16319C5.04808 4.01226 4.48367 3.79888 3.94571 3.52576C3.15368 3.12366 2.43237 2.59885 1.80779 1.97234C1.7793 2.11795 1.76483 2.26655 1.76493 2.4161L1.76493 2.4174C1.76422 2.78932 1.85549 3.15565 2.03062 3.48376C2.20574 3.81188 2.45928 4.0916 2.76867 4.29803C2.95643 4.4233 3.03864 4.6577 2.97025 4.87281C2.90187 5.08792 2.6994 5.23182 2.47377 5.22568C2.26942 5.22012 2.06677 5.19527 1.86844 5.15183Z" fill="black"/>
</svg>
