<svg width="24" height="24" viewBox="0 0 24 24" fill="none" xmlns="http://www.w3.org/2000/svg">
<path d="M12.0051 1.08005e-06C9.63128 -0.00100584 7.31051 0.702062 5.33634 2.02025C3.36217 3.33844 1.82331 5.21253 0.914427 7.40545C0.00554422 9.59837 -0.232527 12.0116 0.230333 14.3398C0.693194 16.6681 1.83619 18.8067 3.51472 20.4853C5.19326 22.1638 7.33192 23.3068 9.66017 23.7697C11.9884 24.2325 14.4016 23.9945 16.5946 23.0856C18.7875 22.1767 20.6616 20.6378 21.9798 18.6637C23.2979 16.6895 24.001 14.3687 24 11.9949C24 8.81366 22.7363 5.76271 20.4868 3.51323C18.2373 1.26375 15.1863 1.08005e-06 12.0051 1.08005e-06ZM11.496 16.3479H5.02504C4.75011 16.3479 3.76751 16.3886 3.54349 15.9151C3.37548 15.5537 3.66059 15.0089 4.36318 14.3114C6.30293 12.3716 8.32923 10.1264 8.32923 10.1264C8.32923 10.1264 8.67544 9.67331 7.97794 9.67331H5.22868C4.87703 9.74057 4.51294 9.68464 4.19767 9.51496C3.88241 9.34527 3.63521 9.07218 3.49767 8.74163C3.43587 8.54998 3.42118 8.34626 3.45486 8.14773C3.48854 7.94921 3.56959 7.76172 3.69114 7.60118C4.10353 7.09206 4.8723 7.09206 5.2185 7.09206H11.4145C11.6222 7.09794 11.8257 7.15152 12.0093 7.24863C12.1929 7.34574 12.3517 7.48379 12.4735 7.6521C12.6277 7.93505 12.6781 8.26306 12.6158 8.57925C12.5535 8.89543 12.3824 9.17983 12.1324 9.38311C10.1773 11.3432 8.1205 13.5274 8.40052 13.8532C8.41493 13.868 8.43248 13.8793 8.45187 13.8863C8.47126 13.8934 8.49199 13.896 8.51252 13.8939H11.4603C11.6395 13.859 11.8242 13.8641 12.0012 13.9089C12.1781 13.9537 12.343 14.0372 12.4839 14.1533C12.6248 14.2693 12.7383 14.4151 12.8162 14.5802C12.8941 14.7453 12.9345 14.9256 12.9345 15.1082C12.9345 15.2907 12.8941 15.471 12.8162 15.6361C12.7383 15.8012 12.6248 15.947 12.4839 16.0631C12.343 16.1792 12.1781 16.2626 12.0012 16.3075C11.8242 16.3523 11.6395 16.3574 11.4603 16.3224L11.496 16.3479ZM20.3343 16.0424C20.0745 16.3114 19.7286 16.4807 19.3568 16.521H15.3704C14.9347 16.515 14.5101 16.3823 14.1485 16.1391C13.7869 15.8959 13.5038 15.5528 13.3339 15.1515V10.4115C13.3395 10.1947 13.3953 9.98211 13.4968 9.79042C13.5775 9.64616 13.6846 9.51835 13.8125 9.41366C14.0155 9.28212 14.2393 9.18573 14.4743 9.12855C14.7817 9.06545 15.0987 9.06545 15.406 9.12855C15.5816 9.15313 15.7496 9.21645 15.8977 9.31391C16.0459 9.41137 16.1705 9.54055 16.2626 9.69208C16.3547 9.84362 16.4119 10.0137 16.4302 10.1901C16.4485 10.3665 16.4273 10.5447 16.3683 10.7119L14.8154 12.2393H14.1179V13.2575H14.6271V14.7085H19.2092V13.2117H20.0543V12.5651L18.1451 11.0887C18.0483 10.8941 17.9978 10.6798 17.9978 10.4624C17.9978 10.2451 18.0483 10.0308 18.1451 9.83624C18.2399 9.67651 18.3673 9.53861 18.5191 9.43157C18.6709 9.32453 18.8436 9.25077 19.0259 9.21511C19.226 9.18517 19.4305 9.20439 19.6216 9.2711C19.8899 9.2896 20.1448 9.39502 20.3479 9.5714C20.5509 9.74779 20.6909 9.98553 20.7467 10.2486V15.014C20.726 15.3946 20.5708 15.7554 20.3089 16.0322L20.3343 16.0424ZM17.0607 10.7679L18.7 12.4073L18.7306 13.7412H15.6148V12.3411L17.0607 10.7679Z" fill="#5599DD"/>
</svg>
