<svg width="20" height="21" viewBox="0 0 20 21" fill="none" xmlns="http://www.w3.org/2000/svg">
<path d="M17.6905 17.1016C18.717 15.8245 19.431 14.3106 19.772 12.6878C20.113 11.0651 20.071 9.3813 19.6495 7.77889C19.2281 6.17649 18.4396 4.70261 17.3507 3.48195C16.2619 2.26128 14.9047 1.32974 13.394 0.766125C11.8834 0.202508 10.2637 0.0233972 8.67188 0.243945C7.08011 0.464493 5.56313 1.07821 4.24926 2.03318C2.93539 2.98815 1.86329 4.25628 1.12365 5.73029C0.384016 7.2043 -0.00140285 8.84083 3.83677e-06 10.5014C0.000543632 12.9155 0.823267 15.2522 2.32381 17.1016L2.30951 17.1142C2.35955 17.1763 2.41673 17.2295 2.4682 17.2908C2.53253 17.367 2.60186 17.4386 2.66834 17.5126C2.86848 17.7372 3.07434 17.9531 3.29021 18.1556C3.35597 18.2177 3.42388 18.2753 3.49035 18.3344C3.71909 18.5384 3.95426 18.7321 4.198 18.9124C4.22945 18.9346 4.25805 18.9634 4.2895 18.9863V18.9775C5.96362 20.1956 7.96076 20.8494 10.0079 20.8494C12.055 20.8494 14.0521 20.1956 15.7262 18.9775V18.9863C15.7577 18.9634 15.7856 18.9346 15.8177 18.9124C16.0608 18.7313 16.2966 18.5384 16.5254 18.3344C16.5919 18.2753 16.6598 18.2169 16.7255 18.1556C16.9414 17.9523 17.1473 17.7372 17.3474 17.5126C17.4139 17.4386 17.4825 17.367 17.5475 17.2908C17.5983 17.2295 17.6562 17.1763 17.7062 17.1134L17.6905 17.1016ZM10.0072 4.58862C10.6433 4.58862 11.2652 4.78369 11.7942 5.14915C12.3232 5.51461 12.7354 6.03405 12.9789 6.64179C13.2223 7.24953 13.286 7.91827 13.1619 8.56344C13.0378 9.20862 12.7315 9.80124 12.2816 10.2664C11.8318 10.7315 11.2586 11.0483 10.6347 11.1766C10.0107 11.305 9.36397 11.2391 8.77622 10.9874C8.18847 10.7356 7.6861 10.3093 7.33266 9.76238C6.97922 9.21543 6.79057 8.57239 6.79057 7.91458C6.79057 7.03248 7.12946 6.18651 7.73268 5.56277C8.33591 4.93904 9.15406 4.58862 10.0072 4.58862ZM4.29378 17.1016C4.30618 16.1312 4.6876 15.2048 5.35551 14.5228C6.02343 13.8409 6.92413 13.4583 7.86276 13.4578H12.1515C13.0902 13.4583 13.9909 13.8409 14.6588 14.5228C15.3267 15.2048 15.7081 16.1312 15.7205 17.1016C14.1529 18.5623 12.1174 19.3707 10.0072 19.3707C7.89689 19.3707 5.86145 18.5623 4.29378 17.1016Z" fill="#ADB2B8"/>
</svg>
