<svg width="19" height="16" viewBox="0 0 19 16" fill="none" xmlns="http://www.w3.org/2000/svg">
<path d="M8.23842 15.6033L7.28475 14.7551C5.27145 12.9716 3.554 11.2762 2.1324 9.66892C0.7108 8.06167 0 6.40144 0 4.68823C0 3.38192 0.454793 2.27397 1.36438 1.36438C2.27397 0.454793 3.39082 0 4.71493 0C5.49228 0 6.287 0.194124 7.0991 0.582373C7.91205 0.971469 8.67159 1.67803 9.37773 2.70206C10.0839 1.67803 10.8388 0.971469 11.6424 0.582373C12.446 0.194124 13.2365 0 14.0138 0C15.3557 0 16.4815 0.454793 17.3911 1.36438C18.3007 2.27397 18.7555 3.38192 18.7555 4.68823C18.7555 6.45485 17.9959 8.15492 16.4768 9.78844C14.9586 11.422 13.2191 13.1394 11.2584 14.9408L10.517 15.6033C10.1814 15.8678 9.80159 16 9.37773 16C8.95388 16 8.57411 15.8678 8.23842 15.6033ZM8.84749 3.78797C8.45924 2.97587 7.87221 2.32271 7.08639 1.8285C6.30056 1.33344 5.51008 1.08591 4.71493 1.08591C3.6553 1.08591 2.78556 1.42584 2.1057 2.1057C1.42584 2.78556 1.08591 3.6464 1.08591 4.68823C1.08591 5.46557 1.3025 6.25182 1.73568 7.04697C2.168 7.84127 2.74614 8.65803 3.47008 9.49726C4.19402 10.3356 5.02392 11.1876 5.95979 12.0531C6.8965 12.9186 7.89467 13.8371 8.9543 14.8086C9.07722 14.9145 9.21836 14.9675 9.37773 14.9675C9.5371 14.9675 9.67824 14.9145 9.80116 14.8086C10.843 13.8727 11.8365 12.9589 12.7817 12.0671C13.7269 11.1744 14.5568 10.3089 15.2714 9.47056C15.9869 8.63133 16.5654 7.81456 17.0071 7.02027C17.4487 6.22512 17.6696 5.44777 17.6696 4.68823C17.6696 3.6464 17.325 2.78556 16.6358 2.1057C15.9474 1.42584 15.0824 1.08591 14.0405 1.08591C13.2276 1.08591 12.4413 1.33344 11.6818 1.8285C10.9231 2.32271 10.3407 2.97587 9.93467 3.78797C9.88127 3.89393 9.80159 3.97785 9.69562 4.03974C9.58966 4.10162 9.4837 4.13256 9.37773 4.13256C9.28957 4.13256 9.19251 4.10162 9.08655 4.03974C8.98058 3.97785 8.9009 3.89393 8.84749 3.78797Z" fill="#5599DD"/>
</svg>
