<svg width="20" height="17" viewBox="0 0 20 17" fill="current" xmlns="http://www.w3.org/2000/svg">
<path d="M13.934 16.4698V7.66136C13.934 7.40795 13.8706 7.1586 13.7439 6.91331C13.6172 6.66802 13.4438 6.46903 13.2237 6.31633L8.37597 2.86482V1.21521C8.46045 1.01216 8.59568 0.847279 8.78168 0.720574C8.96767 0.593056 9.17073 0.529297 9.39084 0.529297H18.9596C19.2308 0.529297 19.4721 0.635291 19.6832 0.84728C19.8944 1.05846 20 1.29928 20 1.56975V15.4538C20 15.725 19.8944 15.9622 19.6832 16.1653C19.4721 16.3683 19.2308 16.4698 18.9596 16.4698H13.934ZM15.1779 13.2717H16.7519V11.6721H15.1779V13.2717ZM15.1779 9.31219H16.7519V7.71253H15.1779V9.31219ZM15.1779 5.32705H16.7519V3.75298H15.1779V5.32705ZM0 15.6572V8.82973C0 8.57551 0.0588856 8.32576 0.176657 8.08047C0.29524 7.83518 0.464587 7.63659 0.684698 7.48471L5.02558 4.38773C5.33017 4.16762 5.66439 4.05756 6.02826 4.05756C6.39214 4.05756 6.71784 4.16762 7.00536 4.38773L11.345 7.48471C11.5651 7.63659 11.73 7.83518 11.8397 8.08047C11.9501 8.32576 12.0054 8.57551 12.0054 8.82973V15.6572C12.0054 15.8773 11.925 16.0678 11.7641 16.2286C11.6033 16.3894 11.4128 16.4698 11.1927 16.4698H7.94347V11.3931H4.08626V16.4698H0.836988C0.616878 16.4698 0.422352 16.3894 0.253411 16.2286C0.0844704 16.0678 0 15.8773 0 15.6572Z" fill="current"/>
</svg>
