<svg width="12" height="12" viewBox="0 0 12 12" fill="none" xmlns="http://www.w3.org/2000/svg">
<mask id="path-1-inside-1_4840_20287" fill="white">
<path d="M3.09729 -3.05176e-05H1.26316C0.565535 -3.05176e-05 0 0.565505 0 1.26313C0 7.19292 4.80705 12 10.7368 12C11.4345 12 12 11.4344 12 10.7368V8.90268C12 8.35747 11.6681 7.8672 11.1619 7.66471L9.40475 6.96187C8.95004 6.77998 8.43221 6.86202 8.05598 7.17554L7.60207 7.5538C7.0723 7.99528 6.2933 7.95994 5.80568 7.47232L4.52765 6.19429C4.04003 5.70667 4.00469 4.92767 4.44617 4.3979L4.82443 3.94399C5.13795 3.56776 5.21999 3.04993 5.0381 2.59522L4.33526 0.838115C4.13277 0.331904 3.6425 -3.05176e-05 3.09729 -3.05176e-05Z"/>
</mask>
<path d="M4.33526 0.838115L3.77817 1.06095L4.33526 0.838115ZM5.0381 2.59522L5.59519 2.37239L5.0381 2.59522ZM4.82443 3.94399L5.28536 4.3281L5.28536 4.3281L4.82443 3.94399ZM4.44617 4.3979L4.9071 4.78201L4.44617 4.3979ZM4.52765 6.19429L4.10339 6.61855L4.52765 6.19429ZM5.80568 7.47232L6.22994 7.04805L5.80568 7.47232ZM7.60207 7.5538L7.21796 7.09287L7.60207 7.5538ZM8.05598 7.17554L8.44009 7.63647L8.44009 7.63647L8.05598 7.17554ZM9.40475 6.96187L9.18191 7.51895L9.40475 6.96187ZM11.1619 7.66471L11.3847 7.10763L11.1619 7.66471ZM1.26316 0.59997H3.09729V-0.600031H1.26316V0.59997ZM3.77817 1.06095L4.48102 2.81806L5.59519 2.37239L4.89234 0.615281L3.77817 1.06095ZM4.36349 3.55988L3.98523 4.01379L4.9071 4.78201L5.28536 4.3281L4.36349 3.55988ZM4.10339 6.61855L5.38142 7.89658L6.22994 7.04805L4.95192 5.77003L4.10339 6.61855ZM7.98618 8.01474L8.44009 7.63647L7.67187 6.71461L7.21796 7.09287L7.98618 8.01474ZM9.18191 7.51895L10.939 8.2218L11.3847 7.10763L9.62758 6.40478L9.18191 7.51895ZM11.4 8.90268V10.7368H12.6V8.90268H11.4ZM10.7368 11.4C5.13842 11.4 0.6 6.86155 0.6 1.26313H-0.6C-0.6 7.52429 4.47568 12.6 10.7368 12.6V11.4ZM11.4 10.7368C11.4 11.1031 11.1031 11.4 10.7368 11.4V12.6C11.7658 12.6 12.6 11.7658 12.6 10.7368H11.4ZM10.939 8.2218C11.2174 8.33316 11.4 8.60282 11.4 8.90268H12.6C12.6 8.11213 12.1187 7.40123 11.3847 7.10763L10.939 8.2218ZM8.44009 7.63647C8.64702 7.46404 8.93182 7.41892 9.18191 7.51895L9.62758 6.40478C8.96825 6.14105 8.2174 6.26 7.67187 6.71461L8.44009 7.63647ZM5.38142 7.89658C6.08847 8.60364 7.21801 8.65487 7.98618 8.01474L7.21796 7.09287C6.92658 7.33568 6.49814 7.31625 6.22994 7.04805L5.38142 7.89658ZM3.98523 4.01379C3.3451 4.78196 3.39634 5.9115 4.10339 6.61855L4.95192 5.77003C4.68372 5.50183 4.66429 5.07339 4.9071 4.78201L3.98523 4.01379ZM4.48102 2.81806C4.58105 3.06815 4.53593 3.35295 4.36349 3.55988L5.28536 4.3281C5.73997 3.78257 5.85892 3.03172 5.59519 2.37239L4.48102 2.81806ZM3.09729 0.59997C3.39715 0.59997 3.66681 0.782533 3.77817 1.06095L4.89234 0.615281C4.59874 -0.118725 3.88784 -0.600031 3.09729 -0.600031V0.59997ZM1.26316 -0.600031C0.234164 -0.600031 -0.6 0.234134 -0.6 1.26313H0.6C0.6 0.896876 0.896906 0.59997 1.26316 0.59997V-0.600031Z" fill="black" mask="url(#path-1-inside-1_4840_20287)"/>
</svg>
