<svg width="21" height="19" viewBox="0 0 21 19" fill="none" xmlns="http://www.w3.org/2000/svg">
<mask id="path-1-inside-1_3972_19140" fill="white">
<path d="M13.5 7.05859C13.5 10.7865 10.4779 13.8086 6.75 13.8086C5.47271 13.8086 4.27828 13.4538 3.25988 12.8374C3.18271 12.7907 3.08907 12.7789 3.0035 12.8074L0.569209 13.6189C0.334682 13.697 0.111561 13.4739 0.189737 13.2394L1.00117 10.8051C1.02969 10.7195 1.01786 10.6259 0.971157 10.5487C0.354774 9.53031 0 8.33588 0 7.05859C0 3.33067 3.02208 0.308594 6.75 0.308594C10.4779 0.308594 13.5 3.33067 13.5 7.05859Z"/>
</mask>
<path d="M1.00117 10.8051L1.76011 11.0581L1.00117 10.8051ZM0.971157 10.5487L0.286751 10.9629L0.971157 10.5487ZM0.569209 13.6189L0.822192 14.3778L0.569209 13.6189ZM0.189737 13.2394L0.948683 13.4924L0.189737 13.2394ZM3.25988 12.8374L2.84565 13.5218L3.25988 12.8374ZM3.0035 12.8074L3.25648 13.5664L3.0035 12.8074ZM6.75 14.6086C10.9198 14.6086 14.3 11.2283 14.3 7.05859H12.7C12.7 10.3447 10.0361 13.0086 6.75 13.0086V14.6086ZM2.84565 13.5218C3.98546 14.2117 5.3226 14.6086 6.75 14.6086V13.0086C5.62281 13.0086 4.5711 12.6959 3.67411 12.153L2.84565 13.5218ZM2.75052 12.0485L0.316227 12.8599L0.822192 14.3778L3.25648 13.5664L2.75052 12.0485ZM0.948683 13.4924L1.76011 11.0581L0.24222 10.5521L-0.56921 12.9864L0.948683 13.4924ZM-0.8 7.05859C-0.8 8.48599 -0.403118 9.82313 0.286751 10.9629L1.65556 10.1345C1.11267 9.2375 0.8 8.18578 0.8 7.05859H-0.8ZM6.75 -0.491406C2.58025 -0.491406 -0.8 2.88884 -0.8 7.05859H0.8C0.8 3.7725 3.46391 1.10859 6.75 1.10859V-0.491406ZM14.3 7.05859C14.3 2.88884 10.9198 -0.491406 6.75 -0.491406V1.10859C10.0361 1.10859 12.7 3.7725 12.7 7.05859H14.3ZM1.76011 11.0581C1.86567 10.7414 1.81902 10.4045 1.65556 10.1345L0.286751 10.9629C0.216701 10.8472 0.19371 10.6976 0.24222 10.5521L1.76011 11.0581ZM0.316227 12.8599C0.707109 12.7296 1.07898 13.1015 0.948683 13.4924L-0.56921 12.9864C-0.855854 13.8463 -0.037745 14.6644 0.822192 14.3778L0.316227 12.8599ZM3.67411 12.153C3.40404 11.9896 3.06718 11.9429 2.75052 12.0485L3.25648 13.5664C3.11095 13.6149 2.96138 13.5919 2.84565 13.5218L3.67411 12.153Z" fill="#686B6F" mask="url(#path-1-inside-1_3972_19140)"/>
<path d="M7.13086 13.7969C8.05418 16.4247 10.5575 18.3086 13.5009 18.3086C14.7952 18.3086 16.0044 17.9444 17.0315 17.3127C17.0828 17.2812 17.1453 17.2734 17.2023 17.2924L19.8714 18.1821C20.0278 18.2342 20.1765 18.0855 20.1244 17.9291L19.2338 15.2574C19.2153 15.2018 19.222 15.141 19.2523 15.0908L19.3644 14.9048C19.9285 13.9185 20.2509 12.7762 20.2509 11.5586C20.2509 7.83068 17.2288 4.80859 13.5009 4.80859L13.2478 4.81325L13.1208 4.82" stroke="#686B6F" stroke-width="0.8" strokeLinecap="round" strokeLinejoin="round"/>
</svg>
