<svg width="16" height="16" viewBox="0 0 16 16" fill="none" xmlns="http://www.w3.org/2000/svg">
<path d="M3.57077 16C3.1051 16 2.70849 15.8362 2.38095 15.5087C2.0534 15.1811 1.88963 14.7763 1.88963 14.294V1.8871H1.34745C1.20932 1.8871 1.08856 1.83085 0.985165 1.71836C0.881774 1.6067 0.830078 1.4818 0.830078 1.34367C0.830078 1.22291 0.881774 1.1067 0.985165 0.995037C1.08856 0.882548 1.20932 0.826303 1.34745 0.826303H4.9405C4.9405 0.602978 5.02652 0.40943 5.19856 0.245658C5.37061 0.0818861 5.56871 0 5.79286 0H10.1874C10.4116 0 10.6055 0.0818861 10.7693 0.245658C10.9331 0.40943 11.0149 0.602978 11.0149 0.826303H14.6328C14.7536 0.826303 14.8698 0.882548 14.9814 0.995037C15.0939 1.1067 15.1502 1.22291 15.1502 1.34367C15.1502 1.4818 15.0939 1.6067 14.9814 1.71836C14.8698 1.83085 14.7536 1.8871 14.6328 1.8871H14.0906V14.294C14.0906 14.7763 13.9269 15.1811 13.5993 15.5087C13.2718 15.8362 12.8669 16 12.3847 16H3.57077ZM2.95043 1.8871V14.294C2.95043 14.4835 3.01039 14.6385 3.13033 14.7593C3.25109 14.8801 3.3979 14.9404 3.57077 14.9404H12.3847C12.5741 14.9404 12.7292 14.8801 12.8499 14.7593C12.9699 14.6385 13.0298 14.4835 13.0298 14.294V1.8871H2.95043ZM5.74199 12.2519C5.74199 12.39 5.79782 12.5149 5.90948 12.6266C6.02115 12.7382 6.14604 12.794 6.28417 12.794C6.40493 12.794 6.52115 12.7382 6.63281 12.6266C6.7453 12.5149 6.80154 12.39 6.80154 12.2519V4.54839C6.80154 4.42845 6.7453 4.31224 6.63281 4.19975C6.52115 4.08809 6.40493 4.03226 6.28417 4.03226C6.14604 4.03226 6.02115 4.08809 5.90948 4.19975C5.79782 4.31224 5.74199 4.42845 5.74199 4.54839V12.2519ZM9.1539 12.2519C9.1539 12.39 9.20973 12.5149 9.32139 12.6266C9.43306 12.7382 9.55795 12.794 9.69608 12.794C9.81684 12.794 9.93306 12.7382 10.0447 12.6266C10.1572 12.5149 10.2135 12.39 10.2135 12.2519V4.54839C10.2135 4.42845 10.1572 4.31224 10.0447 4.19975C9.93306 4.08809 9.81684 4.03226 9.69608 4.03226C9.55795 4.03226 9.43306 4.08809 9.32139 4.19975C9.20973 4.31224 9.1539 4.42845 9.1539 4.54839V12.2519ZM2.95043 1.8871V14.294C2.95043 14.4835 3.01039 14.6385 3.13033 14.7593C3.25109 14.8801 3.3979 14.9404 3.57077 14.9404H2.95043C2.95043 14.9404 2.95043 14.8801 2.95043 14.7593C2.95043 14.6385 2.95043 14.4835 2.95043 14.294V1.8871Z" fill="#ADB2B8"/>
</svg>
