<svg width="12" height="14" viewBox="0 0 12 14" fill="none" xmlns="http://www.w3.org/2000/svg">
<path d="M0.806256 12.2114H1.65216L9.28327 4.57935L8.43831 3.71456L0.806256 11.3457V12.2114ZM10.9751 4.0686L8.96889 2.02275L9.75532 1.21649C9.92588 1.05914 10.1194 0.980469 10.3359 0.980469C10.5524 0.980469 10.746 1.06575 10.9166 1.23632L11.8012 2.10111C11.9453 2.25846 12.0111 2.4586 11.9985 2.70155C11.9853 2.94387 11.9066 3.1437 11.7625 3.30105L10.9751 4.0686ZM0.649536 13.0177C0.465753 13.0177 0.311551 12.9554 0.18693 12.8307C0.0623101 12.7061 0 12.5519 0 12.3681V11.2475C0 11.1688 0.0132171 11.0933 0.0396518 11.0209C0.065457 10.9492 0.111403 10.8805 0.17749 10.8151L8.43831 2.57315L10.4634 4.57935L2.18369 12.8402C2.13082 12.893 2.06851 12.9358 1.99676 12.9686C1.92438 13.0013 1.84885 13.0177 1.77018 13.0177H0.649536ZM8.8707 4.14696L8.43831 3.71456L9.28327 4.57935L8.8707 4.14696Z" fill="#ADB2B8"/>
</svg>
