<svg width="20" height="21" viewBox="0 0 20 21" fill="current" xmlns="http://www.w3.org/2000/svg">
<path d="M10 20.5527C8.63333 20.5527 7.34167 20.2902 6.125 19.7652C4.90833 19.2402 3.84583 18.5236 2.9375 17.6152C2.02917 16.7069 1.3125 15.6444 0.7875 14.4277C0.2625 13.2111 0 11.9194 0 10.5527C0 9.18607 0.2625 7.8944 0.7875 6.67773C1.3125 5.46107 2.02917 4.39857 2.9375 3.49023C3.84583 2.5819 4.90833 1.86523 6.125 1.34023C7.34167 0.815234 8.63333 0.552734 10 0.552734C11.3667 0.552734 12.6583 0.815234 13.875 1.34023C15.0917 1.86523 16.1542 2.5819 17.0625 3.49023C17.9708 4.39857 18.6875 5.46107 19.2125 6.67773C19.7375 7.8944 20 9.18607 20 10.5527C20 11.9194 19.7375 13.2111 19.2125 14.4277C18.6875 15.6444 17.9708 16.7069 17.0625 17.6152C16.1542 18.5236 15.0917 19.2402 13.875 19.7652C12.6583 20.2902 11.3667 20.5527 10 20.5527ZM4.575 15.9777L11.825 12.4027L15.4 5.15273L8.15 8.72773L4.575 15.9777ZM10 11.5527C9.71667 11.5527 9.47917 11.4569 9.2875 11.2652C9.09583 11.0736 9 10.8361 9 10.5527C9 10.2694 9.09583 10.0319 9.2875 9.84023C9.47917 9.64857 9.71667 9.55273 10 9.55273C10.2833 9.55273 10.5208 9.64857 10.7125 9.84023C10.9042 10.0319 11 10.2694 11 10.5527C11 10.8361 10.9042 11.0736 10.7125 11.2652C10.5208 11.4569 10.2833 11.5527 10 11.5527Z" fill="current"/>
</svg>
