<svg width="20" height="17" viewBox="0 0 20 17" fill="none" xmlns="http://www.w3.org/2000/svg">
<path d="M8.78725 16.2576L7.83358 15.4094C5.82028 13.6259 4.10283 11.9305 2.68123 10.3232C1.25963 8.71597 0.548828 7.05574 0.548828 5.34253C0.548828 4.03621 1.00362 2.92826 1.91321 2.01868C2.8228 1.10909 3.93965 0.654297 5.26376 0.654297C6.04111 0.654297 6.83583 0.848421 7.64793 1.23667C8.46088 1.62577 9.22042 2.33233 9.92656 3.35636C10.6327 2.33233 11.3876 1.62577 12.1912 1.23667C12.9948 0.848421 13.7853 0.654297 14.5627 0.654297C15.9046 0.654297 17.0303 1.10909 17.9399 2.01868C18.8495 2.92826 19.3043 4.03621 19.3043 5.34253C19.3043 7.10914 18.5448 8.80921 17.0257 10.4427C15.5074 12.0763 13.7679 13.7937 11.8072 15.5951L11.0659 16.2576C10.7302 16.5221 10.3504 16.6543 9.92656 16.6543C9.50271 16.6543 9.12294 16.5221 8.78725 16.2576ZM9.39632 4.44226C9.00807 3.63016 8.42104 2.97701 7.63522 2.4828C6.84939 1.98774 6.05891 1.74021 5.26376 1.74021C4.20413 1.74021 3.33439 2.08014 2.65453 2.76C1.97467 3.43985 1.63474 4.3007 1.63474 5.34253C1.63474 6.11987 1.85133 6.90612 2.2845 7.70126C2.71683 8.49556 3.29497 9.31233 4.01891 10.1516C4.74285 10.9899 5.57275 11.8419 6.50862 12.7074C7.44533 13.5729 8.4435 14.4914 9.50313 15.4628C9.62605 15.5688 9.76719 15.6218 9.92656 15.6218C10.0859 15.6218 10.2271 15.5688 10.35 15.4628C11.3918 14.527 12.3853 13.6132 13.3305 12.7214C14.2757 11.8287 15.1056 10.9632 15.8202 10.1249C16.5357 9.28562 17.1142 8.46886 17.5559 7.67456C17.9976 6.87942 18.2184 6.10207 18.2184 5.34253C18.2184 4.3007 17.8738 3.43985 17.1846 2.76C16.4963 2.08014 15.6312 1.74021 14.5894 1.74021C13.7764 1.74021 12.9902 1.98774 12.2306 2.4828C11.4719 2.97701 10.8896 3.63016 10.4835 4.44226C10.4301 4.54823 10.3504 4.63215 10.2445 4.69403C10.1385 4.75592 10.0325 4.78686 9.92656 4.78686C9.8384 4.78686 9.74134 4.75592 9.63537 4.69403C9.52941 4.63215 9.44973 4.54823 9.39632 4.44226Z" fill="black"/>
</svg>
