<svg width="18" height="17" viewBox="0 0 18 17" fill="none" xmlns="http://www.w3.org/2000/svg">
<path d="M7.90658 15.9119L6.99132 15.0637C5.05912 13.2802 3.41085 11.5848 2.04651 9.97751C0.682169 8.37026 0 6.71003 0 4.99682C0 3.69051 0.436475 2.58256 1.30942 1.67297C2.18237 0.763387 3.25424 0.308594 4.52502 0.308594C5.27105 0.308594 6.03376 0.502718 6.81315 0.890967C7.59336 1.28006 8.3223 1.98662 9 3.01065C9.67769 1.98662 10.4022 1.28006 11.1734 0.890967C11.9447 0.502718 12.7033 0.308594 13.4494 0.308594C14.7372 0.308594 15.8176 0.763387 16.6906 1.67297C17.5635 2.58256 18 3.69051 18 4.99682C18 6.76344 17.271 8.46351 15.8132 10.097C14.3561 11.7306 12.6866 13.448 10.8049 15.2494L10.0934 15.9119C9.77125 16.1764 9.40678 16.3086 9 16.3086C8.59322 16.3086 8.22875 16.1764 7.90658 15.9119ZM8.49112 4.09656C8.11851 3.28446 7.55512 2.6313 6.80095 2.13709C6.04678 1.64203 5.28814 1.3945 4.52502 1.3945C3.50807 1.3945 2.67336 1.73443 2.02088 2.41429C1.36841 3.09415 1.04217 3.95499 1.04217 4.99682C1.04217 5.77417 1.25003 6.56041 1.66576 7.35556C2.08068 8.14986 2.63553 8.96662 3.33031 9.80585C4.02508 10.6442 4.82156 11.4962 5.71973 12.3617C6.61871 13.2272 7.57668 14.1457 8.59363 15.1171C8.71159 15.2231 8.84705 15.2761 9 15.2761C9.15295 15.2761 9.28841 15.2231 9.40637 15.1171C10.4062 14.1813 11.3597 13.2675 12.2668 12.3757C13.174 11.483 13.9704 10.6175 14.6563 9.77915C15.3429 8.93992 15.8982 8.12316 16.322 7.32886C16.7459 6.53371 16.9578 5.75637 16.9578 4.99682C16.9578 3.95499 16.6271 3.09415 15.9657 2.41429C15.3051 1.73443 14.4748 1.3945 13.475 1.3945C12.6948 1.3945 11.9402 1.64203 11.2113 2.13709C10.4831 2.6313 9.9242 3.28446 9.53451 4.09656C9.48325 4.20252 9.40678 4.28645 9.30508 4.34833C9.20339 4.41021 9.1017 4.44115 9 4.44115C8.91539 4.44115 8.82224 4.41021 8.72054 4.34833C8.61885 4.28645 8.54237 4.20252 8.49112 4.09656Z" fill="#686B6F"/>
</svg>
