<svg width="20" height="23" viewBox="0 0 20 23" fill="none" xmlns="http://www.w3.org/2000/svg">
<path d="M15.2 15.75C15.0443 15.6391 14.9664 15.4945 14.9664 15.3164C14.9664 15.1393 15.0443 14.9729 15.2 14.8172L17.8336 12.1836H7.3008C7.12267 12.1836 6.96107 12.1116 6.816 11.9676C6.672 11.8225 6.6 11.6615 6.6 11.4844C6.6 11.3287 6.672 11.1783 6.816 11.0332C6.96107 10.8892 7.12267 10.8172 7.3008 10.8172H17.7328L15.1328 8.18361C15.0443 8.05027 15 7.90041 15 7.73401C15 7.56761 15.0667 7.41721 15.2 7.28281C15.3333 7.15054 15.4944 7.08974 15.6832 7.10041C15.872 7.11107 16.0555 7.19427 16.2336 7.35001L19.6336 10.75C19.7669 10.8833 19.8613 11.0113 19.9168 11.134C19.9723 11.2556 20 11.3831 20 11.5164C20 11.6721 19.9723 11.8113 19.9168 11.934C19.8613 12.0556 19.7669 12.1831 19.6336 12.3164L16.1328 15.7836C16.0443 15.8945 15.9109 15.9665 15.7328 15.9996C15.5557 16.0337 15.3781 15.9505 15.2 15.75ZM2.1664 22.6844C1.56693 22.6844 1.056 22.4732 0.6336 22.0508C0.2112 21.6284 0 21.1057 0 20.4828V2.51641C0 1.89454 0.2112 1.37241 0.6336 0.950006C1.056 0.527606 1.56693 0.316406 2.1664 0.316406H9.8336C9.98933 0.316406 10.1392 0.38894 10.2832 0.534006C10.4283 0.678006 10.5008 0.827873 10.5008 0.983606C10.5008 1.16174 10.4283 1.32281 10.2832 1.46681C10.1392 1.61081 9.98933 1.68281 9.8336 1.68281H2.1664C1.96693 1.68281 1.78347 1.76654 1.616 1.93401C1.4496 2.10041 1.3664 2.29454 1.3664 2.51641V20.4828C1.3664 20.7057 1.4496 20.9004 1.616 21.0668C1.78347 21.2332 1.96693 21.3164 2.1664 21.3164H9.8336C9.98933 21.3164 10.1392 21.3889 10.2832 21.534C10.4283 21.678 10.5008 21.8279 10.5008 21.9836C10.5008 22.1617 10.4283 22.3228 10.2832 22.4668C10.1392 22.6119 9.98933 22.6844 9.8336 22.6844H2.1664Z" fill="#ADB2B8"/>
</svg>
