<svg width="14" height="13" viewBox="0 0 14 13" fill="none" xmlns="http://www.w3.org/2000/svg">
<mask id="path-1-inside-1_4840_20292" fill="white">
<path d="M9 4.49997C9 6.98525 6.98528 8.99997 4.5 8.99997C3.66546 8.99997 2.88399 8.7728 2.21403 8.37692C2.13638 8.33103 2.04282 8.31903 1.95726 8.34755L0.56921 8.81023C0.334682 8.88841 0.111561 8.66529 0.189737 8.43076L0.652419 7.04271C0.680942 6.95715 0.668935 6.86359 0.623049 6.78594C0.227172 6.11598 0 5.33451 0 4.49997C0 2.01469 2.01472 -3.05176e-05 4.5 -3.05176e-05C6.98528 -3.05176e-05 9 2.01469 9 4.49997Z"/>
</mask>
<path d="M0.623049 6.78594L0.106492 7.09117L0.623049 6.78594ZM0.56921 8.81023L0.758946 9.37944L0.56921 8.81023ZM0.189737 8.43076L0.758947 8.6205L0.189737 8.43076ZM2.21403 8.37692L1.9088 8.89348L2.21403 8.37692ZM1.95726 8.34755L2.14699 8.91676L1.95726 8.34755ZM4.5 9.59997C7.31665 9.59997 9.6 7.31662 9.6 4.49997H8.4C8.4 6.65388 6.65391 8.39997 4.5 8.39997V9.59997ZM1.9088 8.89348C2.66865 9.34248 3.55517 9.59997 4.5 9.59997V8.39997C3.77576 8.39997 3.09932 8.20312 2.51927 7.86036L1.9088 8.89348ZM1.76752 7.77834L0.379473 8.24102L0.758946 9.37944L2.14699 8.91676L1.76752 7.77834ZM0.758947 8.6205L1.22163 7.23245L0.0832089 6.85298L-0.379473 8.24102L0.758947 8.6205ZM-0.6 4.49997C-0.6 5.4448 -0.34251 6.33132 0.106492 7.09117L1.13961 6.4807C0.796854 5.90065 0.6 5.22421 0.6 4.49997H-0.6ZM4.5 -0.600031C1.68335 -0.600031 -0.6 1.68332 -0.6 4.49997H0.6C0.6 2.34606 2.34609 0.59997 4.5 0.59997V-0.600031ZM9.6 4.49997C9.6 1.68332 7.31665 -0.600031 4.5 -0.600031V0.59997C6.65391 0.59997 8.4 2.34606 8.4 4.49997H9.6ZM1.22163 7.23245C1.30828 6.97251 1.26863 6.69906 1.13961 6.4807L0.106492 7.09117C0.0692349 7.02812 0.0536076 6.94178 0.0832089 6.85298L1.22163 7.23245ZM0.379473 8.24102C0.614002 8.16285 0.837122 8.38597 0.758947 8.6205L-0.379473 8.24102C-0.614 8.9446 0.0553628 9.61397 0.758946 9.37944L0.379473 8.24102ZM2.51927 7.86036C2.30091 7.73134 2.02746 7.69169 1.76752 7.77834L2.14699 8.91676C2.05819 8.94636 1.97185 8.93073 1.9088 8.89348L2.51927 7.86036Z" fill="black" mask="url(#path-1-inside-1_4840_20292)"/>
<path d="M4.75342 8.99216C5.36897 10.744 7.03787 12 9.00011 12C9.85163 12 10.6479 11.7635 11.3268 11.3525C11.3783 11.3214 11.4407 11.3135 11.4978 11.3325L13.1206 11.8735C13.277 11.9256 13.4257 11.7768 13.3736 11.6205L12.8318 9.99498C12.8133 9.93945 12.82 9.8786 12.8502 9.82847L12.9091 9.73077C13.2852 9.07327 13.5001 8.3117 13.5001 7.49997C13.5001 5.01469 11.4854 2.99997 9.00011 2.99997L8.8314 3.00307L8.74673 3.00757" stroke="black" stroke-width="0.6" stroke-linecap="round" stroke-linejoin="round"/>
</svg>
