<svg width="15" height="16" viewBox="0 0 15 16" fill="none" xmlns="http://www.w3.org/2000/svg">
<mask id="path-1-inside-1_4407_9105" fill="white">
<path d="M10.1664 12.4444H12.8447C13.4965 12.4444 13.8229 11.6564 13.362 11.1956V11.1956C13.1943 11.0278 13.0613 10.8287 12.9705 10.6095C12.8798 10.3903 12.8331 10.1554 12.8331 9.91822V7.11111C12.8333 6.00794 12.4914 4.93186 11.8547 4.03101C11.2763 3.21285 10.4806 2.57577 9.5603 2.19006C9.39275 2.11983 9.27756 1.95945 9.27756 1.77778V1.77778C9.27756 1.30628 9.09026 0.854097 8.75686 0.520699C8.42346 0.187301 7.97128 0 7.49978 0C7.02829 0 6.5761 0.187301 6.2427 0.520699C5.90931 0.854097 5.72201 1.30628 5.72201 1.77778V1.77778C5.72201 1.95944 5.60671 2.11984 5.43919 2.19011C3.51709 2.99639 2.16645 4.89645 2.16645 7.11111V9.91911C2.16645 10.3973 1.97623 10.8569 1.63756 11.1956V11.1956C1.17669 11.6564 1.5031 12.4444 2.15487 12.4444H4.83312H10.1664ZM10.1664 12.4444V13.3333C10.1664 14.0406 9.8855 14.7189 9.3854 15.219C8.8853 15.719 8.20703 16 7.49978 16C6.79254 16 6.11426 15.719 5.61416 15.219C5.11407 14.7189 4.83312 14.0406 4.83312 13.3333V12.4444H10.1664ZM4.83312 12.4444H10.1664Z"/>
</mask>
<path d="M10.1664 12.8444C10.3874 12.8444 10.5665 12.6654 10.5665 12.4444C10.5665 12.2235 10.3874 12.0444 10.1664 12.0444V12.8444ZM4.83312 12.0444C4.6122 12.0444 4.43312 12.2235 4.43312 12.4444C4.43312 12.6654 4.6122 12.8444 4.83312 12.8444V12.0444ZM4.83312 12.8444H10.1664V12.0444H4.83312V12.8444ZM10.1664 12.4444V11.6444C9.72462 11.6444 9.36645 12.0026 9.36645 12.4444H10.1664ZM12.8331 9.91822L13.6331 9.91835V9.91822H12.8331ZM12.8331 7.11111L12.0331 7.11101V7.11111H12.8331ZM11.8547 4.03101L11.2014 4.49278L11.8547 4.03101ZM7.49978 0V-0.8V0ZM4.83312 12.4444H5.63312C5.63312 12.0026 5.27494 11.6444 4.83312 11.6444V12.4444ZM7.49978 16V16.8V16ZM5.43919 2.19011L5.74865 2.92784L5.43919 2.19011ZM9.5603 2.19006L9.86953 1.45224L9.5603 2.19006ZM10.1664 13.2444H12.8447V11.6444H10.1664V13.2444ZM13.9278 10.6299C13.8343 10.5365 13.7602 10.4255 13.7097 10.3034L12.2314 10.9155C12.3623 11.2318 12.5543 11.5191 12.7963 11.7612L13.9278 10.6299ZM13.7097 10.3034C13.6591 10.1813 13.6331 10.0505 13.6331 9.91835L12.0331 9.9181C12.0331 10.2604 12.1004 10.5993 12.2314 10.9155L13.7097 10.3034ZM13.6331 9.91822V7.11111H12.0331V9.91822H13.6331ZM13.6331 7.11121C13.6333 5.84262 13.2402 4.60518 12.5079 3.56925L11.2014 4.49278C11.7426 5.25854 12.0332 6.17326 12.0331 7.11101L13.6331 7.11121ZM12.5079 3.56925C11.8429 2.6284 10.9278 1.89579 9.86953 1.45224L9.25107 2.92787C10.0334 3.25575 10.7098 3.7973 11.2014 4.49278L12.5079 3.56925ZM10.0776 1.77778C10.0776 1.09411 9.80597 0.43844 9.32255 -0.0449865L8.19118 1.08638C8.37455 1.26975 8.47756 1.51846 8.47756 1.77778H10.0776ZM9.32255 -0.0449865C8.83912 -0.528414 8.18345 -0.8 7.49978 -0.8V0.8C7.75911 0.8 8.00781 0.903015 8.19118 1.08638L9.32255 -0.0449865ZM7.49978 -0.8C6.81611 -0.8 6.16045 -0.528414 5.67702 -0.0449865L6.80839 1.08638C6.99176 0.903015 7.24046 0.8 7.49978 0.8V-0.8ZM5.67702 -0.0449865C5.19359 0.43844 4.92201 1.09411 4.92201 1.77778H6.52201C6.52201 1.51846 6.62502 1.26975 6.80839 1.08638L5.67702 -0.0449865ZM5.12973 1.45239C2.921 2.3789 1.36645 4.56289 1.36645 7.11111H2.96645C2.96645 5.23 4.11317 3.61388 5.74865 2.92784L5.12973 1.45239ZM1.36645 7.11111V9.91911H2.96645V7.11111H1.36645ZM1.36645 9.91911C1.36645 10.1851 1.26053 10.4412 1.07188 10.6299L2.20325 11.7612C2.69193 11.2726 2.96645 10.6095 2.96645 9.91911H1.36645ZM2.15487 13.2444H4.83312V11.6444H2.15487V13.2444ZM9.36645 12.4444V13.3333H10.9664V12.4444H9.36645ZM9.36645 13.3333C9.36645 13.8284 9.16978 14.3032 8.81972 14.6533L9.95109 15.7846C10.6012 15.1345 10.9664 14.2528 10.9664 13.3333H9.36645ZM8.81972 14.6533C8.46965 15.0033 7.99485 15.2 7.49978 15.2V16.8C8.4192 16.8 9.30096 16.4348 9.95109 15.7846L8.81972 14.6533ZM7.49978 15.2C7.00471 15.2 6.52992 15.0033 6.17985 14.6533L5.04848 15.7846C5.69861 16.4348 6.58037 16.8 7.49978 16.8V15.2ZM6.17985 14.6533C5.82978 14.3032 5.63312 13.8284 5.63312 13.3333H4.03312C4.03312 14.2528 4.39835 15.1345 5.04848 15.7846L6.17985 14.6533ZM5.63312 13.3333V12.4444H4.03312V13.3333H5.63312ZM4.92201 1.77778C4.92201 1.61118 5.02481 1.4964 5.12973 1.45239L5.74865 2.92784C6.18862 2.74328 6.52201 2.30771 6.52201 1.77778H4.92201ZM1.07188 10.6299C0.107031 11.5947 0.790376 13.2444 2.15487 13.2444V11.6444C2.15476 11.6444 2.16041 11.6445 2.16963 11.6475C2.17863 11.6504 2.18744 11.6548 2.19509 11.6602C2.2097 11.6705 2.21565 11.6808 2.21808 11.6867C2.22051 11.6926 2.22361 11.7041 2.22056 11.7217C2.21897 11.7309 2.21587 11.7403 2.21153 11.7486C2.20709 11.7572 2.20317 11.7613 2.20325 11.7612L1.07188 10.6299ZM9.86953 1.45224C9.97492 1.49641 10.0776 1.61147 10.0776 1.77778H8.47756C8.47756 2.30742 8.81058 2.74326 9.25107 2.92787L9.86953 1.45224ZM12.8447 13.2444C14.2092 13.2444 14.8925 11.5947 13.9277 10.6299L12.7963 11.7612C12.7964 11.7613 12.7925 11.7572 12.788 11.7486C12.7837 11.7403 12.7806 11.7309 12.779 11.7217C12.776 11.7041 12.7791 11.6926 12.7815 11.6867C12.7839 11.6808 12.7899 11.6705 12.8045 11.6602C12.8121 11.6548 12.8209 11.6504 12.8299 11.6475C12.8392 11.6445 12.8448 11.6444 12.8447 11.6444V13.2444Z" fill="black" mask="url(#path-1-inside-1_4407_9105)"/>
</svg>
