<svg width="15" height="16" viewBox="0 0 15 16" fill="none" xmlns="http://www.w3.org/2000/svg">
<path d="M13.0791 11.4784L13.0792 11.4784C13.288 11.6873 13.1401 12.0444 12.8447 12.0444H10.1664H4.83312H2.15487C1.85946 12.0444 1.71152 11.6873 1.9204 11.4784C2.33408 11.0647 2.56645 10.5034 2.56645 9.91911V7.11111C2.56645 5.06322 3.81513 3.30514 5.59392 2.55897C5.89767 2.43156 6.12201 2.13357 6.12201 1.77778C6.12201 1.41237 6.26716 1.06193 6.52555 0.803542C6.78393 0.545158 7.13437 0.4 7.49978 0.4C7.86519 0.4 8.21564 0.545158 8.47402 0.803542C8.7324 1.06193 8.87756 1.41237 8.87756 1.77778C8.87756 2.13343 9.10167 2.43155 9.40568 2.55896C10.257 2.91576 10.9931 3.50507 11.528 4.26189C12.117 5.0952 12.4332 6.0906 12.4331 7.11106V7.11111V9.91816C12.4331 9.91818 12.4331 9.9182 12.4331 9.91822C12.4331 10.2079 12.4901 10.4948 12.6009 10.7625L12.9705 10.6095L12.6009 10.7625C12.7118 11.0302 12.8743 11.2735 13.0791 11.4784ZM9.76645 12.8444V13.3333C9.76645 13.9345 9.52764 14.511 9.10256 14.9361C8.67748 15.3612 8.10094 15.6 7.49978 15.6C6.89863 15.6 6.32209 15.3612 5.89701 14.9361C5.47192 14.511 5.23312 13.9345 5.23312 13.3333V12.8444H9.76645Z" stroke="black" stroke-width="0.8" strokeLinecap="round" strokeLinejoin="round"/>
<circle cx="12.2405" cy="4.74049" r="2.37037" fill="#CE1313"/>
</svg>
