<svg width="12" height="12" viewBox="0 0 12 12" fill="none" xmlns="http://www.w3.org/2000/svg">
<path d="M4.66088 4.59336V7.38956C4.66088 7.61573 4.75417 7.78251 4.94075 7.8899C5.12732 7.99729 5.31091 7.98888 5.49153 7.86468L7.69464 6.44095C7.86441 6.3162 7.94929 6.16922 7.94929 6C7.94929 5.83078 7.86441 5.67837 7.69464 5.54278L5.49153 4.13532C5.31091 4.01112 5.12732 4.00271 4.94075 4.1101C4.75417 4.21749 4.66088 4.37858 4.66088 4.59336ZM6 12C5.17505 12 4.39539 11.8419 3.66102 11.5257C2.92664 11.2089 2.29098 10.7794 1.75403 10.237C1.21763 9.69464 0.791051 9.05925 0.474305 8.33085C0.158102 7.6019 0 6.82495 0 6C0 5.17505 0.158102 4.39539 0.474305 3.66102C0.791051 2.92664 1.22061 2.29098 1.76298 1.75403C2.30536 1.21763 2.94075 0.791051 3.66915 0.474305C4.3981 0.158102 5.17505 0 6 0C6.82495 0 7.60461 0.158102 8.33898 0.474305C9.07336 0.791051 9.70902 1.22061 10.246 1.76298C10.7824 2.30536 11.2089 2.94075 11.5257 3.66915C11.8419 4.3981 12 5.17505 12 6C12 6.82495 11.8419 7.60461 11.5257 8.33898C11.2089 9.07336 10.7794 9.70902 10.237 10.246C9.69464 10.7824 9.05925 11.2089 8.33085 11.5257C7.6019 11.8419 6.82495 12 6 12ZM6 11.3052C7.46875 11.3052 8.72027 10.7883 9.75458 9.75458C10.7883 8.72027 11.3052 7.46875 11.3052 6C11.3052 4.53125 10.7883 3.27973 9.75458 2.24542C8.72027 1.21166 7.46875 0.69478 6 0.69478C4.53125 0.69478 3.27973 1.21166 2.24542 2.24542C1.21166 3.27973 0.69478 4.53125 0.69478 6C0.69478 7.46875 1.21166 8.72027 2.24542 9.75458C3.27973 10.7883 4.53125 11.3052 6 11.3052Z" fill="#2A2B2C"/>
</svg>
