<svg width="19" height="17" viewBox="0 0 19 17" fill="none" xmlns="http://www.w3.org/2000/svg">
<path d="M8.25209 16.5584L7.29842 15.7102C5.28512 13.9267 3.56767 12.2359 2.14607 10.638C0.724472 9.03921 0.0136719 7.37432 0.0136719 5.64331C0.0136719 4.337 0.464227 3.22905 1.36534 2.31946C2.2656 1.40987 3.38669 0.955078 4.72861 0.955078C5.50595 0.955078 6.30067 1.1492 7.11277 1.53745C7.92572 1.92655 8.68527 2.63311 9.3914 3.65714C10.0975 2.63311 10.8524 1.92655 11.656 1.53745C12.4597 1.1492 13.2502 0.955078 14.0275 0.955078C15.3694 0.955078 16.4952 1.40987 17.4048 2.31946C18.3143 3.22905 18.7691 4.337 18.7691 5.64331C18.7691 7.40992 18.0096 9.11 16.4905 10.7435C14.9723 12.377 13.2328 14.0945 11.272 15.8959L10.5307 16.5584C10.2128 16.8584 9.8373 17.0042 9.40412 16.9958C8.97179 16.9864 8.58778 16.8406 8.25209 16.5584Z" fill="#CE1313"/>
</svg>
