<svg width="17" height="15" viewBox="0 0 17 15" fill="none" xmlns="http://www.w3.org/2000/svg">
<path d="M7.26721 13.6529L6.43275 12.9108C4.67111 11.3501 3.16835 9.87073 1.92444 8.47254C0.680544 7.07362 0.0585938 5.61684 0.0585938 4.1022C0.0585938 2.95918 0.452829 1.98972 1.2413 1.19383C2.02903 0.397944 3.00998 0 4.18416 0C4.86434 0 5.55972 0.169859 6.27031 0.509576C6.98164 0.850036 7.64624 1.46828 8.26411 2.3643C8.88198 1.46828 9.5425 0.850036 10.2457 0.509576C10.9488 0.169859 11.6405 0 12.3207 0C13.4949 0 14.4799 0.397944 15.2758 1.19383C16.0717 1.98972 16.4696 2.95918 16.4696 4.1022C16.4696 5.64799 15.805 7.13555 14.4758 8.56489C13.1474 9.99423 11.6253 11.497 9.90966 13.0732L9.26101 13.6529C8.98286 13.9154 8.65427 14.043 8.27524 14.0356C7.89695 14.0274 7.56094 13.8999 7.26721 13.6529Z" fill="#CE1313"/>
</svg>
