<svg width="20" height="20" viewBox="0 0 20 20" fill="none" xmlns="http://www.w3.org/2000/svg">
<path d="M10 15.0007C10.151 15.0007 10.2875 14.9392 10.4095 14.8163C10.5324 14.6942 10.5939 14.5672 10.5939 14.4353V9.43458C10.5939 9.3035 10.5324 9.18102 10.4095 9.06712C10.2875 8.95503 10.151 8.89898 10 8.89898C9.86802 8.89898 9.74102 8.96 9.61898 9.08203C9.49605 9.20407 9.43458 9.33107 9.43458 9.46305V14.4637C9.43458 14.5957 9.49605 14.7177 9.61898 14.8298C9.74102 14.9437 9.86802 15.0007 10 15.0007ZM10 7.31661C10.188 7.31661 10.353 7.24113 10.4949 7.09017C10.6359 6.94011 10.7064 6.77062 10.7064 6.5817C10.7064 6.39367 10.6359 6.22915 10.4949 6.08814C10.353 5.94621 10.188 5.87525 10 5.87525C9.81198 5.87525 9.64701 5.94621 9.50508 6.08814C9.36407 6.22915 9.29356 6.39367 9.29356 6.5817C9.29356 6.77062 9.36407 6.94011 9.50508 7.09017C9.64701 7.24113 9.81198 7.31661 10 7.31661ZM10 20C8.6061 20 7.30215 19.741 6.08814 19.2231C4.87322 18.7051 3.81379 17.9941 2.90983 17.0902C2.00588 16.1862 1.29492 15.1268 0.776949 13.9119C0.258983 12.6979 0 11.3939 0 10C0 8.6061 0.258983 7.30215 0.776949 6.08814C1.29492 4.87322 2.00588 3.81379 2.90983 2.90983C3.81379 2.00588 4.87322 1.29492 6.08814 0.776949C7.30215 0.258983 8.6061 0 10 0C11.3939 0 12.6979 0.258983 13.9119 0.776949C15.1268 1.29492 16.1862 2.00588 17.0902 2.90983C17.9941 3.81379 18.7051 4.87322 19.2231 6.08814C19.741 7.30215 20 8.6061 20 10C20 11.3939 19.741 12.6979 19.2231 13.9119C18.7051 15.1268 17.9941 16.1862 17.0902 17.0902C16.1862 17.9941 15.1268 18.7051 13.9119 19.2231C12.6979 19.741 11.3939 20 10 20ZM10 18.842C12.4479 18.842 14.5338 17.9806 16.2576 16.2576C17.9806 14.5338 18.842 12.4479 18.842 10C18.842 7.55209 17.9806 5.46622 16.2576 3.74237C14.5338 2.01944 12.4479 1.15797 10 1.15797C7.55209 1.15797 5.46622 2.01944 3.74237 3.74237C2.01944 5.46622 1.15797 7.55209 1.15797 10C1.15797 12.4479 2.01944 14.5338 3.74237 16.2576C5.46622 17.9806 7.55209 18.842 10 18.842Z" fill="#686B6F"/>
</svg>
