<svg width="20" height="23" viewBox="0 0 20 23" fill="none" xmlns="http://www.w3.org/2000/svg">
<path d="M11.3311 22.1104H8.60316C8.36337 22.1104 8.15331 22.0303 7.97298 21.8701C7.79362 21.7109 7.69386 21.5013 7.67372 21.2414L7.34424 18.7538C7.16392 18.6732 6.83924 18.5082 6.3702 18.2589C5.90021 18.0095 5.44556 17.7347 5.00626 17.4344L2.75747 18.4229C2.51768 18.5437 2.27788 18.5538 2.03809 18.4531C1.79829 18.3533 1.61845 18.1936 1.49855 17.974L0.120217 15.5453C0.000320538 15.3257 -0.0298934 15.106 0.0295754 14.8864C0.0900035 14.6667 0.2099 14.4768 0.389266 14.3166L2.33879 12.8189C2.31865 12.6386 2.2985 12.4338 2.27836 12.2045C2.25822 11.9743 2.24815 11.7494 2.24815 11.5298C2.24815 11.3494 2.25822 11.1394 2.27836 10.8996C2.2985 10.6598 2.31865 10.4003 2.33879 10.1212L0.389266 8.68245C0.2099 8.52227 0.0900035 8.32708 0.0295754 8.09687C-0.0298934 7.86763 0.000320538 7.64318 0.120217 7.42353L1.49855 5.08554C1.63859 4.88508 1.81844 4.72489 2.03809 4.605C2.25774 4.4851 2.48746 4.4851 2.72726 4.605L5.00626 5.59486C5.32566 5.35507 5.69494 5.11 6.1141 4.85966C6.53422 4.61027 6.94427 4.40549 7.34424 4.24531L7.67372 1.72747C7.69386 1.48768 7.79362 1.28817 7.97298 1.12895C8.15331 0.968763 8.36337 0.888672 8.60316 0.888672H11.3311C11.5708 0.888672 11.7852 0.968763 11.9742 1.12895C12.1641 1.28817 12.2792 1.48768 12.3195 1.72747L12.6187 4.24531C13.0187 4.42563 13.4034 4.62562 13.7726 4.84527C14.1429 5.06492 14.5078 5.31479 14.8675 5.59486L17.2357 4.605C17.4755 4.4851 17.7101 4.47551 17.9393 4.57622C18.1695 4.67598 18.3445 4.83568 18.4644 5.05533L19.873 7.42353C19.9929 7.64318 20.0279 7.86763 19.978 8.09687C19.9281 8.32708 19.8034 8.52227 19.6039 8.68245L17.535 10.2406C17.5551 10.4603 17.5753 10.6751 17.5954 10.8852C17.6146 11.0953 17.6242 11.3 17.6242 11.4995C17.6242 11.6799 17.6146 11.8799 17.5954 12.0995C17.5753 12.3192 17.5551 12.559 17.535 12.8189L19.5737 14.3166C19.7934 14.4567 19.9233 14.6418 19.9636 14.872C20.003 15.1012 19.9627 15.3257 19.8428 15.5453L18.4342 18.0042C18.3143 18.2238 18.1393 18.3735 17.9091 18.4531C17.6798 18.5337 17.4554 18.514 17.2357 18.3941L14.8675 17.374C14.528 17.6541 14.1731 17.904 13.8029 18.1236C13.4336 18.3433 13.0389 18.5433 12.6187 18.7236L12.3195 21.2414C12.2792 21.5013 12.1641 21.7109 11.9742 21.8701C11.7852 22.0303 11.5708 22.1104 11.3311 22.1104ZM9.86208 14.4965C10.6812 14.4965 11.3853 14.2068 11.9742 13.6275C12.5641 13.0481 12.859 12.3388 12.859 11.4995C12.859 10.6603 12.5641 9.95096 11.9742 9.37162C11.3853 8.79228 10.6812 8.5026 9.86208 8.5026C9.04198 8.5026 8.33747 8.79228 7.74854 9.37162C7.15864 9.95096 6.8637 10.6603 6.8637 11.4995C6.8637 12.3388 7.15864 13.0481 7.74854 13.6275C8.33747 14.2068 9.04198 14.4965 9.86208 14.4965Z" fill="#ADB2B8"/>
</svg>
