<svg width="13" height="16" viewBox="0 0 13 16" fill="none" xmlns="http://www.w3.org/2000/svg">
<path d="M6.36985 10.5733C6.25477 10.5733 6.15416 10.5302 6.06802 10.4441C5.98188 10.3579 5.93881 10.2573 5.93881 10.1423V1.39957L4.49686 2.86323C4.41003 2.94937 4.31666 2.99244 4.21674 2.99244C4.11613 2.99244 4.01552 2.94248 3.91491 2.84256C3.8143 2.75573 3.764 2.65512 3.764 2.54073C3.764 2.42565 3.8143 2.31057 3.91491 2.19549L5.89643 0.236708C5.99704 0.136098 6.08318 0.0713226 6.15485 0.0423801C6.22652 0.0141268 6.30542 0 6.39156 0C6.47769 0 6.5566 0.0141268 6.62826 0.0423801C6.69993 0.0713226 6.78607 0.136098 6.88668 0.236708L8.91058 2.26061C8.98225 2.33228 9.02187 2.41497 9.02945 2.50869C9.03634 2.60172 8.98983 2.70577 8.88991 2.82085C8.80308 2.92077 8.70247 2.97073 8.58808 2.97073C8.473 2.97073 8.36516 2.92077 8.26455 2.82085L6.82259 1.37787V10.1423C6.82259 10.2573 6.77573 10.3579 6.68201 10.4441C6.58898 10.5302 6.48493 10.5733 6.36985 10.5733ZM1.8693 16C1.46686 16 1.13299 15.8636 0.867685 15.5907C0.60238 15.3178 0.469727 14.9805 0.469727 14.5787V6.52445C0.469727 6.13718 0.60238 5.80709 0.867685 5.53421C1.13299 5.26132 1.46686 5.12488 1.8693 5.12488H3.07455C3.18963 5.12488 3.29403 5.17139 3.38774 5.26442C3.48077 5.35814 3.52729 5.45496 3.52729 5.55488C3.52729 5.66996 3.48077 5.77436 3.38774 5.86808C3.29403 5.96111 3.18963 6.00762 3.07455 6.00762H1.8693C1.73975 6.00762 1.61778 6.06137 1.50339 6.16887C1.3883 6.27637 1.33076 6.3949 1.33076 6.52445V14.5787C1.33076 14.7221 1.3883 14.8475 1.50339 14.955C1.61778 15.0625 1.73975 15.1162 1.8693 15.1162H10.8704C11.0137 15.1162 11.1395 15.0625 11.2477 14.955C11.3552 14.8475 11.4089 14.7221 11.4089 14.5787V6.52445C11.4089 6.3949 11.3552 6.27637 11.2477 6.16887C11.1395 6.06137 11.0137 6.00762 10.8704 6.00762H9.66515C9.55007 6.00762 9.44567 5.96111 9.35195 5.86808C9.25893 5.77436 9.21241 5.66996 9.21241 5.55488C9.21241 5.45496 9.25893 5.35814 9.35195 5.26442C9.44567 5.17139 9.55007 5.12488 9.66515 5.12488H10.8704C11.2728 5.12488 11.6102 5.26132 11.8824 5.53421C12.1552 5.80709 12.2917 6.13718 12.2917 6.52445V14.5787C12.2917 14.9805 12.1552 15.3178 11.8824 15.5907C11.6102 15.8636 11.2801 16 10.8921 16H1.8693Z" fill="black"/>
</svg>
