<svg width="14" height="14" viewBox="0 0 14 14" fill="none" xmlns="http://www.w3.org/2000/svg">
<path fill-rule="evenodd" clip-rule="evenodd" d="M7 0.999969C3.6912 0.999969 1 3.69118 1 6.99997C1 8.2571 1.38969 9.42623 2.05379 10.3912C2.10886 10.4712 2.1248 10.5723 2.09383 10.6643L1.58276 12.1837C1.50434 12.4168 1.72437 12.6401 1.95861 12.565L3.56226 12.0514C3.64884 12.0236 3.74307 12.037 3.82009 12.0853C4.743 12.6642 5.83297 13 7 13C10.3088 13 13 10.308 13 6.99997C13 3.69118 10.3088 0.999969 7 0.999969Z" stroke="black" stroke-width="0.6" stroke-linejoin="round"/>
<path d="M5.1929 4.00278C5.29769 4.00559 5.41388 4.01125 5.52441 4.25662C5.59771 4.41996 5.72119 4.72067 5.82178 4.96563C5.90005 5.15624 5.96446 5.31309 5.98057 5.3452C6.0174 5.41851 6.04008 5.50311 5.99191 5.6018C5.98623 5.61344 5.98087 5.62457 5.9757 5.63529C5.93706 5.71548 5.90957 5.77254 5.84459 5.84716C5.81787 5.87783 5.79004 5.91146 5.76232 5.94497C5.71355 6.0039 5.6651 6.06245 5.62357 6.10381C5.54991 6.17708 5.47338 6.25611 5.55837 6.40274C5.64342 6.54937 5.94092 7.03162 6.38011 7.42081C6.85226 7.84116 7.26283 8.01831 7.47037 8.10785C7.51067 8.12524 7.54331 8.13932 7.56726 8.15124C7.71463 8.22456 7.80245 8.21327 7.88744 8.11459C7.97248 8.01585 8.25579 7.68588 8.35499 7.53926C8.45132 7.39263 8.55047 7.41519 8.6865 7.46594C8.82248 7.51669 9.54784 7.87203 9.69515 7.94534C9.72428 7.95984 9.75152 7.9729 9.77676 7.98501C9.87928 8.03417 9.94895 8.06758 9.9785 8.11739C10.0153 8.17943 10.0153 8.47273 9.89351 8.81679C9.76886 9.16084 9.16816 9.49081 8.89614 9.51618C8.87039 9.51861 8.84476 9.52171 8.81838 9.5249C8.56911 9.55505 8.25267 9.59333 7.12526 9.14956C5.73606 8.60327 4.81903 7.24786 4.63363 6.97383C4.61899 6.9522 4.60892 6.9373 4.60353 6.93008L4.60039 6.92588C4.51604 6.81301 4 6.12251 4 5.41009C4 4.72847 4.33577 4.3736 4.48893 4.21174C4.49863 4.20148 4.5076 4.192 4.51571 4.18326C4.65169 4.03663 4.8104 3.99997 4.90955 3.99997C5.00875 3.99997 5.1079 3.99997 5.1929 4.00278Z" fill="black"/>
</svg>
